<?xml version="1.0" encoding="UTF-8" standalone="no"?>
<svg
   viewBox="0 0 64 64"
   width="64px"
   height="64px"
   version="1.1"
   id="svg27"
   sodipodi:docname="icon.svg"
   inkscape:version="1.1.2 (0a00cf5339, 2022-02-04, custom)"
   xmlns:inkscape="http://www.inkscape.org/namespaces/inkscape"
   xmlns:sodipodi="http://sodipodi.sourceforge.net/DTD/sodipodi-0.dtd"
   xmlns:xlink="http://www.w3.org/1999/xlink"
   xmlns="http://www.w3.org/2000/svg"
   xmlns:svg="http://www.w3.org/2000/svg">
  <sodipodi:namedview
     id="namedview29"
     pagecolor="#ffffff"
     bordercolor="#666666"
     borderopacity="1.0"
     inkscape:pageshadow="2"
     inkscape:pageopacity="0.0"
     inkscape:pagecheckerboard="0"
     showgrid="false"
     inkscape:zoom="13.21875"
     inkscape:cx="32.037825"
     inkscape:cy="31.92435"
     inkscape:window-width="2560"
     inkscape:window-height="1033"
     inkscape:window-x="0"
     inkscape:window-y="19"
     inkscape:window-maximized="1"
     inkscape:current-layer="surface784792" />
  <defs
     id="defs18">
    <radialGradient
       id="radial0"
       gradientUnits="userSpaceOnUse"
       cx="88.6875"
       cy="86"
       fx="88.6875"
       fy="86"
       r="76.886688"
       gradientTransform="matrix(0.372093,0,0,0.372093,0,0)">
      <stop
         offset="0"
         style="stop-color:rgb(68.627453%,93.333334%,100%);stop-opacity:1;"
         id="stop842" />
      <stop
         offset="0.193"
         style="stop-color:rgb(73.333335%,94.509804%,100%);stop-opacity:1;"
         id="stop844" />
      <stop
         offset="0.703"
         style="stop-color:rgb(84.313726%,97.254902%,100%);stop-opacity:1;"
         id="stop846" />
      <stop
         offset="1"
         style="stop-color:rgb(88.235295%,98.039216%,100%);stop-opacity:1;"
         id="stop848" />
    </radialGradient>
    <radialGradient
       id="radial0-6"
       gradientUnits="userSpaceOnUse"
       cx="88.6875"
       cy="86"
       fx="88.6875"
       fy="86"
       r="76.886688"
       gradientTransform="scale(0.372093)"
       xlink:href="#radial0">
      <stop
         offset="0"
         style="stop-color:rgb(68.627453%,93.333334%,100%);stop-opacity:1;"
         id="stop2" />
      <stop
         offset="0.193"
         style="stop-color:rgb(73.333335%,94.509804%,100%);stop-opacity:1;"
         id="stop4" />
      <stop
         offset="0.703"
         style="stop-color:rgb(84.313726%,97.254902%,100%);stop-opacity:1;"
         id="stop6" />
      <stop
         offset="1"
         style="stop-color:rgb(88.235295%,98.039216%,100%);stop-opacity:1;"
         id="stop8" />
    </radialGradient>
    <linearGradient
       id="linear0"
       gradientUnits="userSpaceOnUse"
       x1="86"
       y1="37.625"
       x2="86"
       y2="134.318558"
       gradientTransform="matrix(0.372093,0,0,0.372093,0,0)">
      <stop
         offset="0"
         style="stop-color:rgb(25.882354%,84.313726%,47.058824%);stop-opacity:1;"
         id="stop11" />
      <stop
         offset="0.428"
         style="stop-color:rgb(23.921569%,79.215688%,46.27451%);stop-opacity:1;"
         id="stop13" />
      <stop
         offset="1"
         style="stop-color:rgb(20.392157%,69.411767%,44.313726%);stop-opacity:1;"
         id="stop15" />
    </linearGradient>
  </defs>
  <g
     id="surface784792">
    <rect
       x="0"
       y="0"
       width="64"
       height="64"
       style="fill:#f9f9f9;fill-opacity:1;stroke:none"
       id="rect20" />
    <path
       style="stroke:none;fill-rule:nonzero;fill:#aeeeff;fill-opacity:1"
       d="M 53 34 L 58.242188 34 C 61.109375 34 63.683594 31.917969 63.972656 29.0625 C 64.304688 25.789062 61.710938 23 58.5 23 L 39.171875 23 C 37.546875 23 36.089844 21.785156 36.003906 20.160156 C 35.914062 18.429688 37.289062 17 39 17 L 44.242188 17 C 47.109375 17 49.683594 14.917969 49.972656 12.0625 C 50.304688 8.789062 47.710938 6 44.5 6 L 10.5 6 C 7.460938 6 5 8.460938 5 11.5 C 5 14.539062 7.460938 17 10.5 17 L 14 17 C 15.105469 17 16 17.894531 16 19 C 16 20.105469 15.105469 21 14 21 L 6.710938 21 C 4.363281 21 2.257812 22.703125 2.023438 25.039062 C 1.753906 27.71875 3.871094 30 6.5 30 L 12.828125 30 C 14.453125 30 15.910156 31.214844 15.996094 32.839844 C 16.085938 34.570312 14.710938 36 13 36 L 9.710938 36 C 7.363281 36 5.257812 37.703125 5.023438 40.039062 C 4.753906 42.71875 6.871094 45 9.5 45 L 13.894531 45 C 14.890625 45 15.8125 45.679688 15.972656 46.664062 C 16.175781 47.917969 15.214844 49 14 49 L 9.710938 49 C 7.363281 49 5.257812 50.703125 5.023438 53.039062 C 4.753906 55.71875 6.871094 58 9.5 58 L 31.5 58 C 31.585938 58 31.664062 57.980469 31.75 57.976562 C 31.835938 57.980469 31.914062 58 32 58 L 49.386719 58 C 51.054688 58 52.582031 56.878906 52.921875 55.242188 C 53.390625 52.996094 51.667969 51 49.5 51 L 44.105469 51 C 43.109375 51 42.1875 50.320312 42.027344 49.335938 C 41.824219 48.082031 42.785156 47 44 47 L 56.289062 47 C 58.636719 47 60.742188 45.296875 60.976562 42.960938 C 61.246094 40.28125 59.128906 38 56.5 38 L 53.105469 38 C 52.109375 38 51.1875 37.320312 51.027344 36.335938 C 50.824219 35.082031 51.785156 34 53 34 Z M 53 34 "
       id="path22" />
    <path
       style="stroke:none;fill-rule:nonzero;fill:#ff0000"
       d="M 51.964844 15.035156 L 25.480469 41.519531 L 12.035156 28.035156 C 10.65625 26.65625 8.417969 26.65625 7.035156 28.035156 C 5.65625 29.417969 5.65625 31.65625 7.035156 33.035156 L 22.855469 48.890625 C 24.308594 50.34375 26.660156 50.34375 28.109375 48.890625 L 56.964844 20.035156 C 58.347656 18.65625 58.347656 16.417969 56.964844 15.035156 C 55.585938 13.65625 53.34375 13.65625 51.964844 15.035156 Z M 51.964844 15.035156 "
       id="path24" />
  </g>
</svg>
