<?xml version="1.0" encoding="UTF-8" standalone="no"?>
<svg
   xmlns:dc="http://purl.org/dc/elements/1.1/"
   xmlns:cc="http://creativecommons.org/ns#"
   xmlns:rdf="http://www.w3.org/1999/02/22-rdf-syntax-ns#"
   xmlns:svg="http://www.w3.org/2000/svg"
   xmlns="http://www.w3.org/2000/svg"
   viewBox="0 0 542.61334 601.33331"
   height="601.33331"
   width="542.61334"
   xml:space="preserve"
   id="svg2"
   version="1.1"><metadata
     id="metadata8"><rdf:RDF><cc:Work
         rdf:about=""><dc:format>image/svg+xml</dc:format><dc:type
           rdf:resource="http://purl.org/dc/dcmitype/StillImage" /></cc:Work></rdf:RDF></metadata><defs
     id="defs6"><clipPath
       id="clipPath364"
       clipPathUnits="userSpaceOnUse"><path
         id="path362"
         d="m 3513.54,2951.9 c -7.8,0 -15.62,0.26 -23.43,0.78 l 1.61,32.15 c 17.06,-1.89 35.13,-2.92 54.15,-2.92 12.19,0 24.78,0.42 37.74,1.32 28.21,1.9 53.01,7 74.81,14.2 l 1.46,-12.34 c -45.56,-22.29 -95.64,-33.19 -146.34,-33.19" /></clipPath></defs><g
     transform="matrix(1.3333333,0,0,-1.3333333,0,601.33333)"
     id="g10"><g
       transform="scale(0.1)"
       id="g12"><path
         id="path14"
         style="fill:#281412;fill-opacity:1;fill-rule:nonzero;stroke:none"
         d="m 1896.56,3366.63 c 3.43,-9.6 2.87,-20 1.04,-29.56 -1.76,-9.69 -5.18,-18.83 -9.24,-27.53 -8.33,-17.34 -19.12,-33.15 -32.36,-47.21 -26.85,-27.45 -58.81,-47.55 -77.69,-77.01 -18.88,-29.11 -28.64,-64.41 -29.13,-99.18 -0.21,-17.42 2.12,-35 8.18,-51.27 6.18,-16.25 15.61,-30.83 28.55,-43.59 l 0.04,-0.04 c 1.05,-1.03 1.06,-2.71 0.03,-3.76 -0.81,-0.82 -2.04,-1 -3.02,-0.53 -17.57,8.27 -31.3,24.3 -39.31,42.12 -8.15,17.85 -12.69,37.24 -13.38,56.75 -1.09,38.9 9.85,78.3 33.48,109.78 23.89,31.79 58.12,49.8 81.44,76.55 5.77,6.66 11.16,13.83 16.05,21.28 5.15,7.3 9.72,14.97 13.98,22.74 8.34,15.52 16,31.93 15.59,49.17 v 0.22 c -0.04,1.64 1.25,3 2.89,3.04 1.31,0.03 2.45,-0.8 2.86,-1.97" /><path
         id="path16"
         style="fill:#b24833;fill-opacity:1;fill-rule:nonzero;stroke:none"
         d="m 2477.4,3274.65 c -44.4,15.49 -79.6,-32.3 -79.6,-32.3 0,0 -72,104.89 -20.3,210.9 0,0 -181.49,0 -194.7,86 l -0.9,-0.1 c 0,0 -71.9,1.3 -124.7,21.19 0,0 -46.9,5.41 -87.2,-5.79 -20.4,-5.7 -43.7,-15.8 -63.7,-37.5 -17.4,-18.8 -32.3,-46.6 -40.5,-87.9 0,0 -30.8,-180.8 -32.7,-198.1 -2,-17.4 -12.1,-65.3 -15.9,-135.2 -2.2,-40.1 69.2,-144.5 223,-169.5 v -0.1 c 0,0 -1.2,-16.6 -2.9,-33.9 0,0 94.4,-16.6 155.9,7.4 l -4.5,32.29 c 145.8,39.41 210.4,172.41 210.4,172.41 0,0 42.9,-20.2 76.9,1.7 13.9,8.9 24.8,22.2 32.4,37.5 7.8,15.2 12.21,32.5 13.1,49.4 1.9,35.9 -11.9,70.4 -44.1,81.6" /><path
         id="path18"
         style="fill:#d62b4d;fill-opacity:1;fill-rule:nonzero;stroke:none"
         d="m 2193.2,2899.74 5.31,-37.5 c -65.78,-52.95 -166.41,-6.49 -166.41,-6.49 1.7,4.1 3.7,20.6 5.2,36.6 0,0 91.54,-5.01 155.9,7.39" /><path
         id="path20"
         style="fill:#e53e68;fill-opacity:1;fill-rule:nonzero;stroke:none"
         d="m 2383.1,2268.15 c -51.3,-17.3 -119.9,-30.7 -211.4,-34.2 -243.2,-9.5 -405.8,56 -458.2,81.3 -11.1,5.3 -17.4,17.2 -15.6,29.4 10.8,74.2 52.2,334.2 108.9,404.4 66.5,82.2 221.6,98.19 225.3,106.7 0,0 106.7,-34.2 166.41,6.49 0,0 122.19,-23.79 167.19,-48.59 121,-67 164.9,-437.8 164.9,-437.8 0,0 -21.69,-65.4 -147.5,-107.7" /><path
         id="path22"
         style="fill:#f0e1f2;fill-opacity:1;fill-rule:nonzero;stroke:none"
         d="m 2038.6,2906.48 c 0.8,9.09 1.35,16.45 1.54,18.9 -0.19,-2.44 -0.74,-9.79 -1.54,-18.9 v 0 m 1.54,18.91 c 0,0.08 0.01,0.15 0.01,0.22 0,-0.07 -0.01,-0.14 -0.01,-0.22 m 0.01,0.23 c 0,0 0,0.01 0,0.02 0,-0.01 0,-0.02 0,-0.02 m 0.01,0.04 c 0,0.02 0,0.05 0,0.07 0,-0.02 0,-0.05 0,-0.07 m 0,0.07 c 0,0.01 0,0.02 0,0.03 0,-0.01 0,-0.02 0,-0.03 m 0,0.05 c 0.01,0.01 0.01,0.03 0.01,0.04 0,-0.01 0,-0.03 -0.01,-0.04 m 0.02,0.14 v 0.01 -0.01 m 0,0.08 c 0,0.01 0,0.01 0,0.02 0,-0.01 0,-0.01 0,-0.02 m 0,0.04 c 0.01,0.02 0.01,0.04 0.01,0.05 0,-0.01 0,-0.03 -0.01,-0.05 m 0.01,0.06 v 0.01 -0.01 m 0,0.04 v 0 0 m 0,0.02 v 0 0 m 0.01,0.04 v 0 0 m 0,0.02 v 0 0 m 0,0.01 v 0 0 m 0,0 c 0,0.01 0,0.01 0,0.01 0,0 0,0 0,-0.01 m 0,0.01 c 0,0.01 0,0.01 0,0.01 0,0 0,0 0,-0.01" /><path
         id="path24"
         style="fill:#a23e31;fill-opacity:1;fill-rule:nonzero;stroke:none"
         d="m 2038.6,2906.48 c 0.8,9.11 1.35,16.46 1.54,18.9 0,0 0,0 0,0.01 0,0.08 0.01,0.15 0.01,0.22 v 0.01 c 0,0 0,0.01 0,0.02 0,0 0.01,0.01 0.01,0.02 0,0.02 0,0.05 0,0.07 v 0 c 0,0.01 0,0.02 0,0.03 0,0 0,0.01 0,0.02 0.01,0.01 0.01,0.03 0.01,0.04 0,0.04 0,0.07 0.01,0.1 v 0.01 c 0,0.02 0,0.05 0,0.07 0,0.01 0,0.01 0,0.02 0,0.01 0,0.02 0,0.02 0.01,0.02 0.01,0.04 0.01,0.05 v 0.01 0.01 c 0,0.01 0,0.02 0,0.03 v 0 c 0,0.01 0,0.02 0,0.02 v 0 c 0,0.02 0,0.03 0.01,0.04 v 0 c 0,0.01 0,0.01 0,0.02 v 0 0.01 0 0 c 0,0.01 0,0.01 0,0.01 v 0 c 0,0.01 0,0.01 0,0.01 v 0 0.1 c 15.9,-2.5 32.6,-4.3 50.3,-5 4.86,-0.21 9.65,-0.3 14.39,-0.3 30.45,0 58.37,4.07 83.81,10.99 l 0.4,-2.9 c -46.96,-20.34 -98.5,-22.45 -150.5,-22.66" /><path
         id="path26"
         style="fill:#281412;fill-opacity:1;fill-rule:nonzero;stroke:none"
         d="m 1905,3518.25 1.3,-1.2 c -17.4,-18.8 -32.3,-46.6 -40.5,-87.9 -66.8,0 -89.3,137.6 -12.8,167.5 -21.4,-51.51 52,-78.4 52,-78.4" /><path
         id="path28"
         style="fill:#281412;fill-opacity:1;fill-rule:nonzero;stroke:none"
         d="m 2193.2,2899.74 -4.5,32.3 c 145.8,39.41 210.4,172.41 210.4,172.41 0,0 42.9,-20.2 76.91,1.7 13.89,8.9 24.79,22.2 32.39,37.5 0,0 158.1,-35.3 139.5,-154.6 -18.5,-119.4 -71.6,-212.9 -27.8,-272.9 43.7,-59.9 119.7,-81.1 119.3,-154.2 -0.49,-93.1 -59.7,-83.3 -55.7,-119.1 4,-35.81 -26.5,-143.9 -153.1,-67 0,0 -43.9,370.8 -164.9,437.8 -45,24.8 -167.19,48.59 -167.19,48.59 l -5.31,37.5" /><path
         id="path30"
         style="fill:#281412;fill-opacity:1;fill-rule:nonzero;stroke:none"
         d="m 2182.8,3539.25 -0.9,-0.1 c 0,0 -71.9,1.3 -124.7,21.2 0,0 -46.9,5.4 -87.2,-5.8 -20.4,-5.7 -43.7,-15.8 -63.7,-37.5 l -1.3,1.2 c 0,0 -73.4,26.89 -52,78.4 0,0 -20.2,109.49 164,157.2 184.2,47.8 474.5,-54.3 513.6,-141.8 28.7,-64.1 -8.9,-88.7 -8.9,-88.7 0,0 65.4,-25 61.3,-144.6 -3.9,-113.1 -58.6,-182.1 -61.5,-185.7 1.9,35.9 -11.9,70.4 -44.1,81.6 -44.4,15.5 -79.6,-32.3 -79.6,-32.3 0,0 -72,104.89 -20.3,210.9 0,0 -181.49,0 -194.7,86" /><path
         id="path32"
         style="fill:#c5365b;fill-opacity:1;fill-rule:nonzero;stroke:none"
         d="m 2315.84,2670.26 c 4.91,-15.96 9.31,-32.07 13.67,-48.19 l 11.88,-48.63 c 7.54,-32.52 13.94,-65.27 19.86,-98.1 5.71,-32.87 10.97,-65.81 15.09,-98.92 4.24,-33.08 7.91,-66.25 10.04,-99.58 0.18,-2.63 -1.8,-4.91 -4.43,-5.09 -2.44,-0.17 -4.58,1.54 -5.03,3.88 l -9.18,49.06 -8.7,49.08 -17.46,98.08 -35.02,196.19 c -0.46,2.59 1.27,5.07 3.87,5.54 2.4,0.43 4.71,-1.05 5.41,-3.32" /><path
         id="path34"
         style="fill:#c5365b;fill-opacity:1;fill-rule:nonzero;stroke:none"
         d="m 1834.32,2277.05 c 2.82,24.63 5.87,49.22 9.54,73.71 3.52,24.5 7.05,49.01 11.07,73.43 l 0.2,-4.2 c -6.42,23.06 -11.7,46.06 -15.36,69.87 -1.71,11.93 -3.1,23.93 -2.86,36.74 0.09,3.22 0.29,6.5 0.83,9.95 0.46,3.4 1.66,7.44 2.58,9.96 1.89,5.82 3.95,11.53 6.2,17.1 8.75,22.48 20.11,43.38 31.54,64.12 11.7,20.6 24.31,40.53 38.02,59.88 1.53,2.15 4.51,2.66 6.66,1.14 2,-1.42 2.58,-4.1 1.42,-6.2 l -0.04,-0.07 c -11.26,-20.39 -22,-41.2 -32.38,-62.01 -10.3,-20.83 -19.82,-42.08 -27.67,-63.52 -2.01,-5.36 -3.78,-10.74 -5.37,-16.14 -0.96,-3.02 -1.4,-4.63 -1.68,-7.07 -0.3,-2.36 -0.47,-4.94 -0.51,-7.59 -0.12,-10.67 1.21,-22.06 2.95,-33.33 3.49,-22.59 8.57,-45.43 14.21,-67.71 l 0.07,-0.3 c 0.33,-1.31 0.36,-2.66 0.14,-3.91 -4.45,-24.34 -9.38,-48.61 -14.32,-72.87 -4.79,-24.29 -10.2,-48.47 -15.84,-72.61 -0.6,-2.56 -3.17,-4.16 -5.74,-3.56 -2.39,0.56 -3.93,2.82 -3.66,5.19" /><path
         id="path36"
         style="fill:#361514;fill-opacity:1;fill-rule:nonzero;stroke:none"
         d="m 2377.5,3452.2 c -38.01,-0.79 -76.24,2.89 -113.32,13.08 -18.48,5.17 -36.73,12.42 -52.9,23.79 -16.02,11.07 -30.04,28.16 -33.25,48.65 -0.98,4.98 -1.14,10.23 -0.88,15.23 0.53,4.98 1.44,9.92 2.19,14.86 0.99,4.89 3.07,9.53 4.59,14.29 1.83,4.65 4.66,8.84 6.97,13.25 10.82,16.82 26.49,29.7 43.57,38.81 17.1,9.19 35.49,15.46 54.25,19.42 18.77,3.56 38.22,5.57 57.16,1.72 l 0.68,-1.02 -0.95,-0.7 -0.08,0.01 c -18.61,1.92 -37.49,-0.84 -55.52,-5.62 -18.09,-4.63 -35.66,-11.41 -51.56,-20.82 -15.76,-9.48 -30.31,-21.35 -39.74,-36.72 -1.97,-4.02 -4.51,-7.77 -6.06,-11.94 -1.25,-4.27 -3.11,-8.38 -3.92,-12.75 -0.56,-4.43 -1.33,-8.83 -1.78,-13.24 -0.16,-4.47 0.04,-8.75 0.92,-13.06 2.54,-17.53 14.15,-32.29 28.83,-42.81 14.7,-10.75 32.22,-17.61 49.83,-23.5 17.78,-5.7 36.19,-9.63 54.77,-12.57 18.55,-3.18 37.38,-5.07 56.2,-6.26 l 1.03,-1.07 -1.03,-1.03" /><path
         id="path38"
         style="fill:#361514;fill-opacity:1;fill-rule:nonzero;stroke:none"
         d="m 2396.93,3241.75 c -11.45,14.79 -20.13,31.45 -27.18,48.78 -7.07,17.35 -11.68,35.72 -14.12,54.4 -2.49,18.67 -1.9,37.82 1.64,56.3 2.91,18.68 10.58,36.18 19.44,52.4 l 1.19,0.35 0.42,-0.99 -0.03,-0.13 c -2.4,-8.96 -6.5,-17.17 -8.04,-26.22 l -3.21,-13.19 -1.81,-13.45 c -1.94,-17.89 -2.27,-35.99 0.33,-53.85 2.15,-17.88 6.37,-35.52 11.89,-52.82 2.81,-8.63 5.97,-17.18 9.61,-25.54 3.31,-8.52 7.43,-16.72 11.61,-24.85 l 0.03,-0.06 -0.45,-1.42 -1.32,0.29" /><path
         id="path40"
         style="fill:#361514;fill-opacity:1;fill-rule:nonzero;stroke:none"
         d="m 2181.88,3538.09 c -37.41,-0.13 -75.01,3.41 -111.53,13.55 -18.16,5.09 -36.31,12.21 -51.78,24.61 -7.66,6.18 -14.35,14.31 -18.1,24.03 -1.96,4.94 -2.26,9.83 -3.32,14.77 -0.68,4.93 -0.32,10.04 -0.24,15.04 2.54,20.21 14.23,37.77 28.59,50.56 14.5,12.9 31.54,22.28 49.32,28.89 35.63,13.52 73.79,17.32 111.08,16.09 l 0.85,-0.91 -0.85,-0.85 c -18.57,-1.37 -37.13,-2.46 -55.23,-6.43 -18.12,-3.39 -36.07,-8.08 -52.87,-15.38 -16.72,-7.25 -32.93,-16.02 -46.07,-28.22 -13.12,-12.02 -22.92,-27.7 -24.88,-44.84 -0.06,-4.26 -0.49,-8.59 0.06,-12.84 0.89,-4.17 1.11,-8.74 2.6,-12.52 2.9,-7.75 8.27,-14.67 15.02,-20.24 13.53,-11.32 30.89,-18.14 48.2,-23.91 17.46,-5.68 35.61,-9.56 53.89,-12.54 18.26,-3.24 36.78,-5.25 55.3,-6.75 l 1.01,-1.09 -1.05,-1.02" /><path
         id="path42"
         style="fill:#361514;fill-opacity:1;fill-rule:nonzero;stroke:none"
         d="m 1904.64,3517.26 c -8.9,1.83 -17.39,5.12 -25.32,9.63 -7.97,4.43 -15.4,10.13 -21.54,17.36 -6.02,7.22 -10.73,16.1 -11.97,25.79 -1.28,9.78 1.91,19.19 6.38,26.94 l 1.21,0.33 0.43,-0.91 -0.02,-0.09 c -1.44,-8.76 -2,-17.05 0,-24.81 2.22,-7.66 6.27,-14.6 11.59,-20.78 5.18,-6.31 11.66,-11.74 18.45,-16.88 6.84,-5.04 14.02,-10 21.51,-14.6 l 0.05,-0.03 0.35,-1.47 -1.12,-0.48" /><path
         id="path44"
         style="fill:#983421;fill-opacity:1;fill-rule:nonzero;stroke:none"
         d="m 2418.41,3194.55 c 0.38,6.97 2.64,12.94 6.24,18.65 3.54,5.67 8.72,10.61 14.98,14.1 6.26,3.42 13.64,5.27 20.59,4.63 7.02,-0.24 13.39,-2.82 18.71,-6.42 2.26,-1.54 2.86,-4.63 1.31,-6.89 -0.82,-1.21 -2.07,-1.95 -3.41,-2.13 l -0.7,-0.1 c -5.66,-0.77 -10.56,-0.88 -14.96,-2.06 -4.4,-0.93 -8.27,-2.37 -11.9,-4.52 -3.7,-1.98 -7.24,-4.68 -10.86,-7.82 -3.53,-3.15 -7.23,-7.02 -11.02,-10.63 l -0.67,-0.64 c -1.96,-1.88 -5.09,-1.81 -6.96,0.16 -0.97,1.02 -1.42,2.37 -1.35,3.67" /><path
         id="path46"
         style="fill:#a8332a;fill-opacity:1;fill-rule:nonzero;stroke:none"
         d="m 2279.74,3075.52 c -41.19,0 -74.57,33.38 -74.57,74.56 0,41.18 33.38,74.57 74.57,74.57 41.18,0 74.57,-33.39 74.57,-74.57 0,-41.18 -33.39,-74.56 -74.57,-74.56" /><path
         id="path48"
         style="fill:#a8332a;fill-opacity:1;fill-rule:nonzero;stroke:none"
         d="m 1910.95,3055.26 c -41.18,0 -74.57,33.38 -74.57,74.56 0,41.18 33.39,74.57 74.57,74.57 41.18,0 74.57,-33.39 74.57,-74.57 0,-41.18 -33.39,-74.56 -74.57,-74.56" /><path
         id="path50"
         style="fill:#1f1212;fill-opacity:1;fill-rule:nonzero;stroke:none"
         d="m 2170.08,3273.54 c -0.06,-17.49 12.97,-31.69 29.08,-31.77 16.11,-0.09 29.3,14 29.37,31.5 0.08,17.44 -12.9,31.65 -29.03,31.74 -16.14,0.07 -29.28,-14.01 -29.42,-31.47" /><path
         id="path52"
         style="fill:#1f1212;fill-opacity:1;fill-rule:nonzero;stroke:none"
         d="m 2246.56,3316.91 c 9.04,-7.18 -17.34,-46 -49.19,-46.06 0,0 -18.85,11.75 -8.24,20.16 7.13,5.69 14.45,3.56 28.71,9.77 19.1,8.31 24.43,19.63 28.72,16.13" /><path
         id="path54"
         style="fill:#1f1212;fill-opacity:1;fill-rule:nonzero;stroke:none"
         d="m 1989.23,3282.35 c 0.06,-17.48 -12.97,-31.68 -29.08,-31.77 -16.11,-0.09 -29.3,14 -29.38,31.5 -0.08,17.44 12.9,31.65 29.04,31.74 16.14,0.08 29.27,-14 29.42,-31.47" /><path
         id="path56"
         style="fill:#1f1212;fill-opacity:1;fill-rule:nonzero;stroke:none"
         d="m 1912.74,3325.72 c -9.02,-7.18 17.35,-46 49.2,-46.05 0,0 18.85,11.74 8.24,20.15 -7.13,5.69 -14.46,3.57 -28.71,9.76 -19.1,8.32 -24.42,19.65 -28.73,16.14" /><path
         id="path58"
         style="fill:#ffffff;fill-opacity:1;fill-rule:nonzero;stroke:none"
         d="m 1989.61,3118.17 c -10.7,-15.52 46.29,-110.48 127.47,-88.22 111.45,30.56 92.93,113.89 89.83,130.98 -3.09,17.08 -202.73,-21.63 -217.3,-42.76" /><path
         id="path60"
         style="fill:#281412;fill-opacity:1;fill-rule:nonzero;stroke:none"
         d="m 1947.94,3365.72 c 19.45,8.78 38.82,7.09 41.47,25.28 2.51,17.15 -19.58,26.98 -41.52,22.23 -26.41,-5.7 -38.77,-23.78 -41.99,-35.88 -3.04,-11.43 2.6,-16.08 7.91,-18.44 8.93,-3.96 27.83,4.66 34.13,6.81" /><path
         id="path62"
         style="fill:#281412;fill-opacity:1;fill-rule:nonzero;stroke:none"
         d="m 2217.75,3365.72 c -19.45,8.78 -38.82,7.09 -41.47,25.28 -2.5,17.15 19.59,26.98 41.53,22.23 26.4,-5.7 38.76,-23.78 41.98,-35.88 3.05,-11.43 -2.59,-16.08 -7.9,-18.44 -8.93,-3.96 -27.84,4.66 -34.14,6.81" /><path
         id="path64"
         style="fill:#bb1a34;fill-opacity:1;fill-rule:nonzero;stroke:none"
         d="m 2124.33,2695.58 c 0,11.39 -9.23,20.62 -20.62,20.62 -11.39,0 -20.61,-9.23 -20.61,-20.62 0,-11.39 9.22,-20.62 20.61,-20.62 11.39,0 20.62,9.23 20.62,20.62" /><path
         id="path66"
         style="fill:#bb1a34;fill-opacity:1;fill-rule:nonzero;stroke:none"
         d="m 2117.62,2582.54 c 0,11.38 -9.24,20.62 -20.63,20.62 -11.39,0 -20.61,-9.24 -20.61,-20.62 0,-11.39 9.22,-20.62 20.61,-20.62 11.39,0 20.63,9.23 20.63,20.62" /><path
         id="path68"
         style="fill:#bb1a34;fill-opacity:1;fill-rule:nonzero;stroke:none"
         d="m 2117.62,2469.67 c 0,11.39 -9.24,20.62 -20.63,20.62 -11.39,0 -20.61,-9.23 -20.61,-20.62 0,-11.39 9.22,-20.62 20.61,-20.62 11.39,0 20.63,9.23 20.63,20.62" /><path
         id="path70"
         style="fill:#983323;fill-opacity:1;fill-rule:nonzero;stroke:none"
         d="m 2064.78,3177.55 c -1.82,0 -3.65,0.08 -5.48,0.25 -10.2,0.96 -42.3,22.55 -42.3,45.72 0,36.81 53.16,117.72 60.34,122.68 0.99,0.67 2.04,1 3.15,1 8.59,0 20.41,-19.68 27.62,-48.79 4.51,-18.18 10.78,-67.89 4.85,-91.48 -4.13,-16.45 -25.46,-29.38 -48.18,-29.38" /><path
         id="path72"
         style="fill:#ef2d51;fill-opacity:1;fill-rule:nonzero;stroke:none"
         d="m 2096.57,3401.78 c 0,-8.63 -5.57,-15.63 -12.44,-15.63 -6.87,0 -12.45,7 -12.45,15.63 0,8.63 5.58,15.63 12.45,15.63 6.87,0 12.44,-7 12.44,-15.63" /><path
         id="path74"
         style="fill:#361514;fill-opacity:1;fill-rule:nonzero;stroke:none"
         d="m 2398.1,3241.88 c -5.98,-5.25 -11.83,-10.29 -15.8,-16 -4,-5.69 -6.09,-11.72 -6.54,-18.39 -1.1,-13.37 4.73,-27.12 11.76,-41.21 6.84,-14.09 15.95,-28.76 18.19,-47.02 2.14,-18.44 -4.66,-35.88 -11.91,-50.41 -7.25,-14.83 -15.57,-27.95 -19.86,-41.68 -4.62,-13.78 -6.34,-28.51 -4.93,-42.86 1.37,-14.36 6.12,-28.34 14.72,-40.29 8.66,-11.84 19.87,-21.68 33.58,-29.21 l 0.05,-0.03 c 1.29,-0.7 1.76,-2.33 1.06,-3.61 -0.54,-0.99 -1.61,-1.49 -2.66,-1.37 -16.86,2.02 -32.52,11.85 -43.66,25.02 -11.28,13.12 -19.08,29.7 -21.78,47.03 -2.69,17.36 -0.77,35.15 4.68,51.64 5.79,16.73 15.1,30.64 22.93,43.88 7.64,13.26 14.26,26.72 13.03,40.57 -0.74,13.9 -8.37,27.67 -16.19,41.64 -3.92,7.06 -7.85,14.47 -10.75,22.74 -2.98,8.22 -4.15,17.57 -3.18,26.8 1.1,9.23 5.62,18.55 12.31,24.77 6.61,6.32 14.21,10.31 21.99,13.09 1.56,0.56 3.27,-0.25 3.83,-1.81 0.42,-1.19 0.01,-2.51 -0.87,-3.29" /><path
         id="path76"
         style="fill:#f35d97;fill-opacity:1;fill-rule:nonzero;stroke:none"
         d="m 1710.01,3145.71 c 1.93,-8.76 -397.13,-107.65 -522.14,188.05 -135.74,321.1 170.5,485.52 347.79,443.22 157.7,-37.66 287.11,-218.75 206.44,-421.4 -36.99,-92.93 -132.82,-145.01 -120.59,-159.96 16.9,-20.67 86.1,-39.03 88.5,-49.91" /><g
         transform="scale(10)"
         id="g78"><text
           id="text82"
           style="font-variant:normal;font-weight:bold;font-size:21.61499977px;font-family:Amatic;-inkscape-font-specification:Amatic-Bold;writing-mode:lr-tb;fill:#ffffff;fill-opacity:1;fill-rule:nonzero;stroke:none"
           transform="matrix(1,0,0,-1,123.219,338.615)"><tspan
             id="tspan80"
             y="0"
             x="0 7.7814002 14.330745 25.03017 31.579515 36.26997 41.479183">Namaste</tspan></text>
</g><path
         id="path84"
         style="fill:#3f1916;fill-opacity:1;fill-rule:nonzero;stroke:none"
         d="m 424.16,3807.23 c 0.801,-5.6 11.403,-83.3 -54,-115.3 -55.097,-27.1 -87.097,5.4 -98.902,21.9 12.023,-145.55 -12.5,-317.81 -12.5,-317.81 0,0 -29.895,50.81 -80.598,18.41 -4.699,-3.01 -8.699,-6.7 -12.301,-10.91 -2.902,0.81 -48.597,15.31 -56.699,84.81 -6.203,53 53,69.2 53,69.2 0,0 -93.6991,55.7 -66.1014,128.4 34.5044,90.6 108.3004,60.7 112.1014,59.1 -4.601,3.49 -86.101,66.99 -1.199,153.4 87.199,88.8 174,22.59 229.297,44.2 55.305,21.5 14.199,120.7 133.004,110.3 118.801,-10.4 134.898,-96.4 134.898,-96.4 0,0 94.301,91.4 162.403,32.1 85,-73.9 6.5,-184.7 6.5,-184.7 0,0 68.996,-3.2 82.996,-75.41 17.097,-87.79 -80.403,-107.39 -80.403,-107.39 0,0 45.403,-37.9 36.203,-80.11 -9.199,-42.19 -60.8,-56.99 -60.8,-56.99 0,0 36.8,-40.8 -6.7,-85.4 l -0.097,-0.11 c -12.5,12.41 -32.203,16.31 -60.703,3.81 0,0 -9.95,128.06 8.5,265.1 l -27.899,1.5 c -14,0 -31.097,2.8 -50.801,11 -60.5,25.3 -61.199,101 -61.199,101 0,0 -28,-76.9 -109.5,-70 -78.902,6.8 -116.199,91.09 -118.5,96.3" /><path
         id="path86"
         style="fill:#893726;fill-opacity:1;fill-rule:nonzero;stroke:none"
         d="m 844.262,3398.53 c -12.5,12.4 -32.203,16.3 -60.703,3.8 0,0 21.402,147.6 8.5,265.1 l -27.899,1.5 c -14,0 -31.097,2.8 -50.801,11 -60.5,25.3 -61.199,101 -61.199,101 0,0 -28,-76.9 -109.5,-70 -78.902,6.8 -116.199,91.09 -118.5,96.3 0.801,-5.6 11.403,-83.3 -54,-115.3 -55.101,-27.1 -87.097,5.4 -98.902,21.9 3.242,-133.35 -12.5,-317.8 -12.5,-317.8 0,0 -29.895,50.8 -80.602,18.4 -4.695,-3.01 -8.695,-6.7 -12.297,-10.9 -39.296,-47.9 -5.097,-168.1 109.5,-154.21 0,0 35.5,-79.79 80.204,-112.79 22.996,-17 54.097,-28.3 88.296,-34.8 l -10.5,-63.2 -3.453,-20.89 c 0,0 23.653,-41.81 101.055,-41.31 53.801,0.29 70.5,36.4 70.5,36.4 l -3,20.1 -10,67 c 42.098,6.4 78,18.5 97.699,34.6 44.801,36.8 66.5,123.1 66.5,123.1 0,0 71.199,-9.6 98.801,43 14.699,28 15.301,76.29 -7.199,98" /><path
         id="path88"
         style="fill:#684790;fill-opacity:1;fill-rule:nonzero;stroke:none"
         d="m 238.66,2625.53 c -113.285,-7.38 -146.8983,118.5 -146.8983,118.5 36.3983,98.8 80.8983,188.9 128.0003,229.4 95,81.7 213.597,65.09 213.597,65.09 l -4.601,-27.79 c 0,0 24.801,-34.9 102.203,-34.4 53.801,0.29 70.5,36.4 70.5,36.4 l -3,20.1 c 0,0 101,9.9 178.398,-54.31 53.399,-44.29 102.903,-159.49 140.102,-278.39 0,0 -12.168,-97.12 -139.699,-94.3 25,-106.91 51.398,-237.7 59.699,-341.71 v -0.09 c -72.5,-26.4 -177.898,-47.5 -329.5,-48.9 -139.898,-1.3 -259.504,22.3 -347.301,52.8 v 0.1 c 25.801,141.9 54.602,265.3 78.5,357.5" /><path
         id="path90"
         style="fill:#893726;fill-opacity:1;fill-rule:nonzero;stroke:none"
         d="m 916.961,2700.13 c 48.602,-154.9 76.5,-316.3 65.898,-335.9 -10.8,-19.8 -48.796,-64.8 -145.898,-100.2 v 0.09 c -8.301,104.01 -34.699,234.8 -59.699,341.71 111.398,14.1 139.699,94.3 139.699,94.3" /><path
         id="path92"
         style="fill:#893726;fill-opacity:1;fill-rule:nonzero;stroke:none"
         d="m 238.66,2625.53 c -23.898,-92.2 -52.699,-215.6 -78.5,-357.5 v -0.1 c -96.0975,33.29 -154.30062,74.8 -159.499844,100.79 -6.199216,30.81 31.800744,214.51 91.101544,375.31 0,0 38.4963,-100.31 146.8983,-118.5" /><path
         id="path94"
         style="fill:#f0e1f2;fill-opacity:1;fill-rule:nonzero;stroke:none"
         d="m 443.324,3098.5 v 0 l 0.535,3.23 -0.535,-3.23" /><path
         id="path96"
         style="fill:#7c3024;fill-opacity:1;fill-rule:nonzero;stroke:none"
         d="m 549.188,3070.2 c -36.461,0 -71.993,6.79 -105.864,28.3 l 0.535,3.23 c 24.688,-4.71 50.989,-6.9 77.008,-6.9 23.207,0 46.192,1.75 67.594,5 l 4.023,-26.98 c -14.55,-1.61 -28.992,-2.65 -43.296,-2.65" /><path
         id="path98"
         style="fill:#2b1412;fill-opacity:1;fill-rule:nonzero;stroke:none"
         d="m 425.703,3807.91 c 11.762,-21.66 26.777,-41.73 45.074,-57.59 9.024,-8.02 18.836,-15.14 29.555,-20.28 5.172,-2.97 10.887,-4.63 16.344,-6.84 5.734,-1.29 11.293,-3.38 17.16,-3.82 l 8.691,-1.19 c 2.911,-0.21 5.856,-0.09 8.778,-0.16 5.883,-0.42 11.601,0.74 17.363,1.29 11.312,2.27 22.23,6.06 32.121,11.95 19.473,11.89 35.149,31.58 44.035,52.33 l 0.043,0.11 c 1.707,3.99 6.336,5.84 10.336,4.13 2.86,-1.22 4.617,-3.94 4.766,-6.84 0.851,-16.93 4.644,-35.2 12.062,-50.93 7.176,-16.02 18.547,-29.79 33.11,-39.36 14.742,-9.08 32.851,-14.78 50.449,-17.24 17.715,-2.32 36.711,-0.15 52.633,8.48 l 0.183,0.1 1.895,-0.56 -0.403,-1.79 c -15.769,-11.53 -35.75,-15.19 -54.988,-14.56 -9.691,0.31 -19.293,2.04 -28.594,4.63 -4.652,1.3 -9.238,2.82 -13.753,4.52 -4.493,1.87 -9.051,4.01 -13.473,6.25 -17.262,9.93 -31.649,25.34 -40.059,43.26 -8.918,17.86 -13.601,36.79 -14.679,57.05 l 15.144,-2.6 c -10.301,-25.16 -27.383,-46.35 -50.641,-60.45 -11.625,-6.84 -24.578,-11.26 -37.812,-13.4 -6.652,-0.52 -13.309,-1.57 -19.926,-0.98 -3.304,0.16 -6.625,0.14 -9.914,0.48 l -9.812,1.59 c -6.571,0.89 -12.77,3.49 -19.063,5.33 -5.992,2.74 -12.203,4.99 -17.73,8.53 -11.481,6.3 -21.645,14.56 -30.774,23.58 -9.226,8.97 -17,19.23 -23.875,29.89 -6.898,10.66 -12.836,21.88 -17.328,33.73 l 0.977,2.17 2.105,-0.81" /><path
         id="path100"
         style="fill:#2b1412;fill-opacity:1;fill-rule:nonzero;stroke:none"
         d="m 267.477,3722.96 c 12.343,-16.89 29.925,-29.91 48.929,-33.22 18.981,-3.38 39.008,2.62 56.129,12.75 17.387,9.53 30.5,25.17 38.578,43.64 4.102,9.22 6.95,19.19 8.754,29.44 2.153,10.23 2.766,20.81 2.867,31.45 l 0.137,-0.43 -0.215,0.94 1.407,1.4 1.402,-1.4 -0.016,0.34 0.141,-0.44 c 5.074,-21.26 5.027,-44.28 -2.285,-65.94 -6.918,-21.68 -22.418,-41.45 -42.703,-52.81 -9.954,-6.01 -20.672,-10 -32.098,-12.56 -11.395,-2.3 -23.633,-2.57 -35.066,0.7 -23.321,6.15 -40.454,24.4 -48.989,44.67 l 0.891,2.2 2.008,-0.56 0.129,-0.17" /><path
         id="path102"
         style="fill:#4f3774;fill-opacity:1;fill-rule:nonzero;stroke:none"
         d="m 292.5,2799.16 -16.91,-65.48 c -5.703,-21.82 -11.277,-43.67 -16.645,-65.58 -10.832,-43.77 -22.035,-87.49 -32.164,-131.42 -10.957,-43.74 -20.765,-87.75 -30.91,-131.7 l -29.969,-132.06 c -0.582,-2.57 -3.14,-4.18 -5.711,-3.59 -2.421,0.54 -3.988,2.88 -3.671,5.3 6.019,44.88 13.675,89.5 22.207,133.96 8.461,44.48 18.496,88.63 28.636,132.76 10.914,43.95 22.129,87.78 34.598,131.31 12.586,43.51 25.797,86.79 41.461,129.43 0.906,2.47 3.652,3.74 6.125,2.83 2.316,-0.85 3.578,-3.31 2.98,-5.65 l -0.027,-0.11" /><path
         id="path104"
         style="fill:#4f3774;fill-opacity:1;fill-rule:nonzero;stroke:none"
         d="m 730.742,2805.94 c 14.403,-43.07 26.852,-86.63 38.66,-130.4 11.832,-43.78 22.067,-87.93 32.379,-132.07 9.41,-44.35 18.774,-88.78 25.785,-133.69 7.102,-44.86 12.539,-90.12 14.149,-135.63 0.09,-2.63 -1.969,-4.84 -4.602,-4.93 -2.468,-0.09 -4.574,1.78 -4.906,4.18 -3.004,22.34 -6.074,44.64 -9.965,66.83 -3.543,22.23 -7.554,44.41 -11.961,66.51 -8.636,44.23 -17.793,88.4 -28.008,132.38 -9.449,44.17 -19.769,88.16 -29.89,132.17 l -30.809,132.02 c -0.613,2.56 0.965,5.14 3.528,5.76 2.406,0.58 4.847,-0.83 5.64,-3.13" /><path
         id="path106"
         style="fill:#69221c;fill-opacity:1;fill-rule:nonzero;stroke:none"
         d="m 769.125,3339.75 c 0.328,6.95 2.238,13.12 5.219,19.14 2.929,6.01 7.129,11.65 12.91,16.35 5.762,4.56 13.496,8.1 21.668,8.02 8.262,0.07 15.266,-3.84 20.254,-8.52 1.965,-1.86 2.058,-4.95 0.207,-6.92 -1.008,-1.07 -2.387,-1.59 -3.754,-1.53 l -0.961,0.04 c -5.773,0.25 -10.375,0.63 -14.199,-0.63 -3.766,-1.25 -7.172,-3.1 -10.676,-6.01 -7.16,-5.61 -13.77,-14.66 -21.699,-23.17 l -0.36,-0.39 c -1.875,-2.01 -5.019,-2.12 -7.031,-0.25 -1.109,1.03 -1.64,2.47 -1.578,3.87" /><path
         id="path108"
         style="fill:#69221c;fill-opacity:1;fill-rule:nonzero;stroke:none"
         d="m 184.746,3356.87 c 2.031,7.46 5.926,13.84 12.68,19.19 3.472,2.59 7.859,4.63 12.894,5.29 2.539,0.23 5.11,0.36 7.547,-0.29 2.512,-0.45 4.965,-1.04 6.938,-2.22 4.461,-2.04 7.332,-4.93 10.453,-7.77 2.219,-3.11 4.984,-6.07 6.465,-9.37 3.535,-6.41 5.523,-13.14 6.535,-20.05 0.394,-2.7 -1.477,-5.21 -4.176,-5.61 -1.598,-0.23 -3.125,0.33 -4.195,1.38 l -0.328,0.32 c -4.715,4.71 -8.371,9.65 -12.278,13.87 -1.906,2.23 -3.902,3.78 -5.699,5.74 -1.934,1.18 -3.652,3.02 -5.285,3.42 -3.074,1.42 -5.145,1.73 -9.52,0.21 -4.097,-1.73 -9.035,-5.27 -13.742,-8.82 l -0.629,-0.48 c -2.16,-1.62 -5.222,-1.19 -6.851,0.97 -0.938,1.25 -1.18,2.82 -0.809,4.22" /><path
         id="path110"
         style="fill:#1f1212;fill-opacity:1;fill-rule:nonzero;stroke:none"
         d="m 417.738,3457.33 c 0.149,-16.26 -11.746,-29.55 -26.57,-29.69 -14.824,-0.13 -26.965,12.94 -27.109,29.2 -0.153,16.27 11.746,29.57 26.57,29.7 14.824,0.13 26.965,-12.94 27.109,-29.21" /><path
         id="path112"
         style="fill:#862a1c;fill-opacity:1;fill-rule:nonzero;stroke:none"
         d="m 362.605,3235.54 c -43.484,0 -78.921,35.05 -79.32,78.62 -0.398,43.81 34.801,79.66 78.617,80.06 0.246,0 0.496,0 0.743,0 43.476,0 78.918,-35.05 79.32,-78.62 0.066,-7.52 -0.914,-14.81 -2.809,-21.72 -8.226,5.23 -15.715,11.69 -22.437,18.93 -8.293,8.56 -15.176,19.11 -20.207,29.63 l -0.262,0.56 c -0.797,1.66 -2.477,2.7 -4.285,2.7 -0.43,0 -0.863,-0.06 -1.297,-0.18 -2.523,-0.72 -3.988,-3.34 -3.277,-5.86 7.152,-25.3 23.308,-47.3 45.16,-62.3 -13.266,-24.67 -39.219,-41.55 -69.207,-41.82 -0.246,0 -0.492,0 -0.739,0" /><path
         id="path114"
         style="fill:#862a1c;fill-opacity:1;fill-rule:nonzero;stroke:none"
         d="m 678.047,3238.41 c -33.863,0 -62.852,21.25 -74.203,51.24 15.554,14.34 27.414,32.09 35,51.78 0.828,2.14 0,4.63 -2.051,5.82 -0.75,0.44 -1.57,0.64 -2.379,0.64 -1.641,0 -3.238,-0.85 -4.121,-2.37 l -0.254,-0.44 c -8.101,-13.96 -18.582,-26.88 -30.652,-37.61 -0.403,3.13 -0.625,6.32 -0.657,9.55 -0.402,43.82 34.801,79.67 78.618,80.07 0.242,0 0.488,0 0.73,0 43.485,0 78.93,-35.04 79.328,-78.62 0.403,-43.82 -34.801,-79.66 -78.617,-80.06 -0.246,0 -0.496,0 -0.742,0" /><path
         id="path116"
         style="fill:#1f1212;fill-opacity:1;fill-rule:nonzero;stroke:none"
         d="m 660.223,3459.54 c 0.152,-16.26 -11.746,-29.56 -26.571,-29.69 -14.824,-0.13 -26.964,12.94 -27.109,29.2 -0.148,16.27 11.746,29.56 26.57,29.69 14.825,0.14 26.965,-12.94 27.11,-29.2" /><path
         id="path118"
         style="fill:#221312;fill-opacity:1;fill-rule:nonzero;stroke:none"
         d="m 396.512,3342.44 c 5.031,-10.52 11.914,-21.07 20.207,-29.63 8.14,-8.76 17.398,-16.39 27.738,-22.07 20.563,-11.58 44.398,-16.49 68.473,-16.41 11.871,0.29 23.746,1.35 35.035,4.76 11.469,2.81 22.215,7.96 32.351,14.13 20.141,12.41 37.598,30.96 49.723,51.86 l 0.254,0.44 c 1.316,2.27 4.227,3.05 6.5,1.73 2.051,-1.19 2.879,-3.68 2.051,-5.82 -9.684,-25.14 -26.336,-47.1 -48.742,-62.87 -22.075,-16.13 -50,-23.99 -77.098,-24.21 -26.77,-0.04 -54.711,6.14 -77.824,21.25 -23.184,15.02 -40.352,37.76 -47.789,64.06 -0.711,2.52 0.754,5.14 3.277,5.86 2.262,0.64 4.602,-0.47 5.582,-2.52 l 0.262,-0.56" /><path
         id="path120"
         style="fill:#7b2a1d;fill-opacity:1;fill-rule:nonzero;stroke:none"
         d="m 518.215,3330.92 c -20.57,0 -41.594,6.44 -48.91,16.76 -11.649,16.43 5.445,143.37 16.218,160.15 5.368,8.35 16.731,11.75 28.543,11.75 14.497,0 29.676,-5.12 35.286,-12.45 8.558,-11.2 28.496,-131.29 13.421,-158.01 -7.21,-12.79 -25.695,-18.2 -44.558,-18.2" /><path
         id="path122"
         style="fill:#3f1916;fill-opacity:1;fill-rule:nonzero;stroke:none"
         d="m 401.801,3548.68 c 18.648,8.62 37.308,7.17 39.707,24.71 2.258,16.53 -19.098,25.79 -40.18,21.04 -25.367,-5.73 -37.109,-23.25 -40.101,-34.91 -2.832,-11.04 2.64,-15.47 7.765,-17.69 8.641,-3.74 26.758,4.72 32.809,6.85" /><path
         id="path124"
         style="fill:#3f1916;fill-opacity:1;fill-rule:nonzero;stroke:none"
         d="m 653.621,3544.69 c -18.801,8.29 -37.433,6.49 -40.148,23.99 -2.563,16.48 18.621,26.13 39.789,21.76 25.468,-5.26 37.527,-22.56 40.73,-34.18 3.035,-10.98 -2.355,-15.5 -7.449,-17.82 -8.566,-3.89 -26.836,4.24 -32.922,6.25" /><path
         id="path126"
         style="fill:#3d224f;fill-opacity:1;fill-rule:nonzero;stroke:none"
         d="m 568.371,2783.61 c -8.152,-18.79 0.141,-118.86 70.906,-112.31 80.34,7.43 58.047,116.7 52.524,119.18 -32.207,14.4 -116.461,9.18 -123.43,-6.87" /><path
         id="path128"
         style="fill:#3d224f;fill-opacity:1;fill-rule:nonzero;stroke:none"
         d="m 438.023,3037.52 c -0.117,-8.07 2.059,-17.09 6.665,-23.72 4.414,-6.87 10.902,-12.13 18.437,-16 15.176,-7.74 33.734,-10.34 52.137,-11.24 18.535,-0.85 37.097,-0.07 52.523,6.62 7.602,3.39 14.145,8.34 18.637,15.12 4.695,6.55 7.051,15.56 7.332,23.77 l 0.019,0.66 c 0.094,2.63 2.29,4.68 4.918,4.59 2.215,-0.08 4.028,-1.67 4.477,-3.74 2.406,-11.08 0.762,-22 -3.922,-32.44 -4.949,-10.27 -13.734,-18.61 -23.504,-23.8 -19.785,-10.55 -41.465,-11.42 -61.406,-10.74 -20.082,1.27 -41.207,4.31 -60.039,15.91 -9.317,5.65 -17.672,14.06 -22.484,24.35 -4.54,10.47 -6.09,21.56 -3.114,32.67 0.68,2.53 3.281,4.04 5.813,3.36 2.148,-0.58 3.554,-2.53 3.519,-4.65 l -0.008,-0.72" /><path
         id="path130"
         style="fill:#cf68bb;fill-opacity:1;fill-rule:nonzero;stroke:none"
         d="m 1016.94,3826.23 c 2.15,-8.36 387.96,80.11 366.85,388.48 -22.94,334.86 -357.5,343.02 -491.419,229.63 -119.121,-100.89 -151.59,-312.7 5.785,-451.75 72.168,-63.76 177.124,-66.86 173.124,-85.01 -5.54,-25.11 -57.01,-70.96 -54.34,-81.35" /><g
         transform="scale(10)"
         id="g132"><text
           id="text136"
           style="font-variant:normal;font-weight:bold;font-size:27.42910004px;font-family:Amatic;-inkscape-font-specification:Amatic-Bold;writing-mode:lr-tb;fill:#ffffff;fill-opacity:1;fill-rule:nonzero;stroke:none"
           transform="matrix(1,0,0,-1,91.6957,410.744)"><tspan
             id="tspan134"
             y="0"
             x="0 7.0043874 15.321765 21.57616 30.161469">Salut</tspan></text>
</g><path
         id="path138"
         style="fill:#161620;fill-opacity:1;fill-rule:nonzero;stroke:none"
         d="m 766.953,826.91 1.602,-0.5 C 727.25,680.91 671.453,659.609 671.453,659.609 l -32.402,0.7 h -0.496 l -3.903,86.3 c 44.2,12 89.903,36.301 132.301,80.301" /><path
         id="path140"
         style="fill:#161620;fill-opacity:1;fill-rule:nonzero;stroke:none"
         d="m 474.555,747.711 -0.102,-0.492 -6.004,-60.707 c -20.199,18 -46.793,46.199 -70.801,90.597 0.504,-0.5 30.707,-17.597 76.907,-29.398" /><path
         id="path142"
         style="fill:#fabd9a;fill-opacity:1;fill-rule:nonzero;stroke:none"
         d="m 792.754,1150.92 c -32.301,-3.51 -122.699,-10.21 -166.805,17.29 -22.195,13.9 -80.094,118.9 -80.094,118.9 8.696,-40.6 58.196,-118.1 58.196,-118.1 0,0 -76.801,-25.7 -132.996,15.5 -45.602,33.51 -69.004,135 -76.203,171.91 l -3.797,-0.11 c 0,0 -66.203,-170.79 -53.903,-346.7 7.5,-106.301 32.301,-180.598 60.496,-232.501 0.504,-0.5 30.707,-17.597 76.903,-29.398 l -0.098,-0.492 -6.004,-60.707 c 19.805,-17.703 33.602,-25.703 33.406,-29.801 -0.304,-7.391 -8.601,-16.102 -21.707,-23.602 15.907,-7.187 42.407,-16.199 74.504,-15.398 73.703,2.008 84.399,31.898 84.399,31.898 l -0.496,10.7 -3.903,86.3 c 44.2,12 91.5,35.801 133.903,79.801 7.797,27.301 15.097,59.11 21.394,95.899 20.106,117.201 2.805,228.611 2.805,228.611" /><path
         id="path144"
         style="fill:#fabfd1;fill-opacity:1;fill-rule:nonzero;stroke:none"
         d="m 371.883,834.672 c -27.27,11.668 -46.375,38.75 -46.375,70.289 0,18.5 6.578,35.469 17.519,48.691 6.614,-46.593 16.782,-85.871 28.856,-118.98" /><path
         id="path146"
         style="fill:#f68b79;fill-opacity:1;fill-rule:nonzero;stroke:none"
         d="m 401.93,828.531 c -10.668,0 -20.825,2.188 -30.047,6.141 -12.074,33.109 -22.242,72.387 -28.856,118.98 14.02,16.93 35.2,27.727 58.903,27.727 42.207,0 76.418,-34.219 76.418,-76.418 0,-42.211 -34.211,-76.43 -76.418,-76.43" /><path
         id="path148"
         style="fill:#fabfd1;fill-opacity:1;fill-rule:nonzero;stroke:none"
         d="m 773.754,845.602 c 5.844,22.73 11.32,48.23 16.195,76.707 3.727,21.73 6.168,43.25 7.672,63.902 22.371,-13.332 37.359,-37.762 37.359,-65.691 0,-37.008 -26.3,-67.868 -61.226,-74.918" /><path
         id="path150"
         style="fill:#f68b79;fill-opacity:1;fill-rule:nonzero;stroke:none"
         d="m 758.563,844.09 c -42.208,0 -76.422,34.219 -76.422,76.43 0,42.191 34.214,76.41 76.422,76.41 14.273,0 27.628,-3.91 39.058,-10.719 -1.504,-20.652 -3.945,-42.172 -7.672,-63.902 -4.875,-28.477 -10.351,-53.977 -16.195,-76.707 -4.91,-0.993 -9.988,-1.512 -15.191,-1.512" /><path
         id="path152"
         style="fill:#eea592;fill-opacity:1;fill-rule:nonzero;stroke:none"
         d="m 625.914,703.969 c -52.512,0 -105.723,12.75 -152.191,35.832 l 0.73,7.418 0.098,0.492 c 24.441,-6.16 53.359,-10.852 84.679,-10.852 24.04,0 49.497,2.762 75.422,9.75 l 1.918,-42.461 c -3.55,-0.117 -7.093,-0.179 -10.656,-0.179" /><path
         id="path154"
         style="fill:#191b2c;fill-opacity:1;fill-rule:nonzero;stroke:none"
         d="m 760.75,645.711 c -21.195,-13.891 -89.297,13.898 -89.297,13.898 0,0 55.797,21.301 97.102,166.801 7.797,27.301 15.097,59.11 21.394,95.899 20.106,117.201 2.805,228.601 2.805,228.601 -32.301,-3.5 -122.699,-10.2 -166.805,17.3 -22.195,13.9 -80.094,118.9 -80.094,118.9 8.7,-40.6 58.196,-118.1 58.196,-118.1 0,0 -76.801,-25.7 -132.996,15.5 -45.602,33.51 -69,135 -76.203,171.9 l -3.797,-0.1 c 0,0 -66.203,-170.79 -53.903,-346.7 7.5,-106.301 32.301,-180.598 60.5,-232.501 24.004,-44.398 50.598,-72.597 70.797,-90.597 19.801,-17.703 33.606,-25.703 33.406,-29.801 -0.304,-7.391 -8.605,-16.102 -21.703,-23.602 -21.597,-12.199 -56.597,-21.097 -91.703,-15.398 -1.996,0.309 -3.996,0.598 -6,1.098 h -0.097 c -110.696,-28.598 -278.196,28.3 -292.8989,58.011 -60.5,121.489 -2.3984,611.29 90.2969,701.29 92.602,90.1 162.305,43.9 162.305,43.9 0,0 -12.602,41.2 43.199,68.6 55.801,27.3 341.601,82.2 461.098,-95 119.503,-177.1 133.203,-632.098 36.5,-717.801 -16.598,-14.598 -83.497,-33.09 -122.102,-32.098" /><path
         id="path156"
         style="fill:#f03f53;fill-opacity:1;fill-rule:nonzero;stroke:none"
         d="M 329.852,62.3086 C 211.855,91.2109 151.953,134.809 151.953,134.809 c 0,0 59.5,342.601 132.899,415.402 32.203,31.898 70.601,53.398 103.597,67.5 35.106,-5.699 70.106,3.199 91.703,15.398 15.903,-7.199 42.403,-16.199 74.5,-15.398 73.703,2.008 84.399,31.898 84.399,31.898 102.402,-7.789 162.203,-63.8 179.101,-80.898 130.403,-132.199 153.801,-414.5 153.801,-414.5 0,0 -54.301,-91.5899 -336.801,-113.6915 -126.199,-9.8086 -228.097,2.793 -305.3,21.7891" /><path
         id="path158"
         style="fill:#282a45;fill-opacity:1;fill-rule:nonzero;stroke:none"
         d="m 879.125,920.441 c 0.203,-33.64 -4.918,-67.05 -13.207,-99.582 -8.395,-32.468 -18.188,-64.82 -33.148,-95.199 -3.45,-7.73 -7.825,-15.012 -12.227,-22.269 -4.055,-7.469 -9.219,-14.262 -14.352,-21.082 -4.785,-7.09 -11.05,-12.989 -17.035,-19.118 -5.64,-6.472 -12.847,-11.312 -19.605,-16.589 l -5.117,-3.922 c -1.516,-1.328 -4.442,-2.301 -6.621,-3.348 -2.325,-0.531 -4.688,-1.121 -6.985,-1.41 -2.258,-0.121 -4.547,-0.34 -6.769,-0.332 -8.907,0.07 -17.321,1.73 -25.618,3.609 -16.546,3.903 -32.41,9.641 -47.484,17.199 l -0.586,1.762 1.578,0.672 c 15.985,-4.59 31.946,-9.273 48.031,-12.34 8.016,-1.48 16.161,-2.672 23.973,-2.383 1.945,0.071 3.805,0.36 5.703,0.52 1.817,0.32 3.5,0.863 5.223,1.281 1.449,0.969 2.742,1.051 4.367,2.52 l 4.766,3.761 c 6.297,5.09 13.023,9.641 18.301,15.911 5.636,5.859 11.386,11.578 16.05,18.328 5.043,6.402 10.149,12.781 14.219,19.929 4.398,6.911 8.793,13.852 12.305,21.313 15.226,29.16 26.543,60.59 33.867,92.91 7.336,32.328 12.719,65.07 17.426,98 l 0.011,0.059 1.668,1.25 1.266,-1.45" /><path
         id="path160"
         style="fill:#282a45;fill-opacity:1;fill-rule:nonzero;stroke:none"
         d="m 503.324,656.648 c -0.23,-6.527 -4.332,-11.507 -8.25,-15.679 -4.125,-4.16 -8.855,-7.489 -13.75,-10.52 -9.859,-5.957 -20.633,-10.039 -31.617,-13.129 -11.012,-3.078 -22.414,-4.629 -33.84,-5.129 -11.527,-0.402 -22.765,0.688 -34.308,3.028 l 0.89,-0.098 h -0.097 l -0.762,0.07 c -18.379,3.879 -35.902,12.051 -50.641,23.75 l 0.793,-0.461 c -14.324,7.102 -26.133,16.731 -37.054,27.512 -5.704,5.137 -10.36,11.227 -15.512,16.867 -4.699,6.012 -9.235,12.161 -13.641,18.383 -17.004,25.328 -29.734,53.379 -38.379,82.43 -4.929,14.398 -7.82,29.277 -11.183,44.027 -3.086,14.832 -4.442,29.93 -6.692,44.852 -0.918,15.058 -2.312,30.09 -2.816,45.14 0.039,15.071 0.363,30.129 1.078,45.141 l 1.371,1.238 1.242,-1.191 0.008,-0.078 c 1.281,-14.981 2.18,-29.891 2.789,-44.801 l 4.391,-44.508 c 4.804,-29.351 9.746,-58.75 19.16,-86.883 8.988,-28.14 20.195,-55.8 36.461,-80.457 4.164,-6.05 8.445,-12.062 12.836,-17.961 4.844,-5.519 9.203,-11.511 14.566,-16.531 10.082,-10.5 21.762,-20.199 34.199,-26.711 l 0.317,-0.168 0.469,-0.312 c 13.816,-11.098 30.41,-18.477 47.761,-22.039 l -0.761,0.082 h 0.097 l 0.621,-0.063 0.278,-0.047 c 10.343,-2.004 21.476,-2.922 32.257,-2.48 10.868,0.308 21.696,1.898 32.286,4.437 10.613,2.461 20.902,6.301 30.582,11.153 4.785,2.5 9.379,5.418 13.445,8.847 3.98,3.383 7.848,7.551 8.461,12.411 l 0.016,0.109 1.644,1.281 1.285,-1.512" /><path
         id="path162"
         style="fill:#282a45;fill-opacity:1;fill-rule:nonzero;stroke:none"
         d="m 545.074,1283.95 -0.801,2.83 1.102,1.97 1.781,-0.68 0.114,-0.18 c 14.523,-22.94 28.675,-46.08 43.402,-68.76 7.336,-11.34 14.84,-22.62 23.094,-33.12 4.187,-4.99 8.468,-10.55 13.211,-13.95 5.211,-3.49 11.269,-6.34 17.375,-8.72 24.863,-9.26 52.218,-11.12 78.992,-11.55 26.898,-0.13 53.949,1.66 80.558,5.28 l -3.996,-5.97 c -5.062,18.49 -10.289,36.85 -16.019,55.11 -5.715,18.26 -12.16,36.26 -18.918,54.12 -6.864,17.8 -14.434,35.36 -23.446,52.08 -8.984,16.68 -19.105,32.94 -33.05,45.75 l -0.067,0.06 -0.078,1.85 1.703,0.19 c 16.352,-11.2 27.703,-27.85 37.653,-44.38 9.754,-16.84 17.98,-34.43 25.496,-52.26 7.597,-17.81 13.89,-36.1 19.945,-54.44 6.031,-18.34 11.445,-36.94 16.074,-55.66 l 0.035,-0.13 c 0.629,-2.54 -0.918,-5.1 -3.457,-5.74 l -0.578,-0.09 c -27.273,-3.25 -54.594,-4.75 -82.011,-3.99 -27.36,0.84 -54.95,3.92 -81.36,13.08 -6.558,2.51 -12.902,5.38 -19.004,9.38 -6.336,4.57 -10.363,10.02 -14.894,15.37 -8.551,10.85 -16.114,22.22 -23.539,33.68 -14.649,23.02 -27.969,46.77 -39.953,71.25 l 2.992,1.12 0.504,-2.78 -1.133,-1.76 -1.727,1.04" /><path
         id="path164"
         style="fill:#282a45;fill-opacity:1;fill-rule:nonzero;stroke:none"
         d="m 393.91,1370.24 c 7.125,-27.69 14.055,-55.32 22.231,-82.56 8.218,-27.16 19.785,-53.6 35.871,-76.38 15.785,-23.08 40.863,-36.88 67.976,-42.61 27.168,-5.95 55.879,-3.59 83.563,1.83 l -0.836,-2.37 -1.32,2.62 0.582,1.77 1.64,-0.38 1.774,-2.29 -0.266,-2.08 -0.336,-0.19 -0.234,-0.1 c -13.559,-5.56 -27.926,-8.43 -42.469,-9.73 -14.531,-1.25 -29.375,-1.15 -43.926,1.67 -14.512,2.8 -28.781,7.82 -41.586,15.58 -12.98,7.45 -23.879,18.97 -31.808,31.19 -16.301,24.62 -26.215,52.01 -35.59,79.24 -9.235,27.33 -15.817,55.54 -18.18,84.33 l 1.352,1.6 1.562,-1.14" /><path
         id="path166"
         style="fill:#282a45;fill-opacity:1;fill-rule:nonzero;stroke:none"
         d="m 585.609,1443.47 c 43.832,7.93 89.969,3.9 131.911,-12.08 21.171,-7.65 40.367,-19.9 57.992,-33.74 l 12.636,-11.24 c 4.004,-3.94 7.461,-8.42 11.219,-12.63 7.938,-8.14 13.133,-18.27 19.52,-27.57 22.242,-38.81 37.953,-80.69 50.097,-123.39 3.161,-10.64 5.661,-21.48 8.082,-32.35 1.164,-5.45 2.278,-10.89 3.145,-16.5 0.195,-1.42 0.473,-2.74 0.598,-4.26 l 0.214,-2.24 0.098,-1.18 -0.16,-2.01 c 0.152,-1.14 -1.098,-3.04 -2.848,-4.13 l -2.527,-1.08 c -1.504,-0.44 -2.984,-0.9 -4.406,-1.17 -11.317,-2.33 -22.403,-2.92 -33.633,-2.97 -11.121,0.33 -22.641,0.47 -33.285,5.71 l -0.594,1.75 1.645,0.65 0.132,-0.06 c 4.813,-1.89 10.325,-2.19 15.688,-2.41 5.394,-0.23 10.836,-0.02 16.258,0.29 10.8,0.64 21.824,1.91 32.078,4.29 1.277,0.29 2.426,0.7 3.558,1.05 l 1.27,0.57 -0.871,-0.84 -0.047,0.06 -0.109,0.86 -0.247,1.88 c -0.132,1.23 -0.464,2.62 -0.683,3.91 -0.992,5.28 -2.262,10.61 -3.582,15.9 -2.656,10.61 -5.695,21.15 -8.797,31.66 -6.203,21.03 -13.395,41.77 -21.445,62.13 -7.938,20.38 -16.7,40.55 -27.325,59.53 -6.007,8.93 -10.679,18.86 -18.125,26.74 -3.507,4.09 -6.711,8.48 -10.464,12.35 l -11.875,11.02 c -16.469,13.92 -35.352,25.24 -55.821,32.53 -40.883,14.62 -85.183,18.97 -128.812,16.06 l -0.121,-0.01 -1.571,1.37 1.207,1.55" /><path
         id="path168"
         style="fill:#bc3441;fill-opacity:1;fill-rule:nonzero;stroke:none"
         d="m 406.602,435.152 c -2.329,-15.711 -5.247,-31.3 -7.735,-46.98 l -8.472,-46.813 c -5.582,-31.207 -11.692,-62.32 -17.68,-93.429 l -18.629,-93.219 -9.473,-46.602 C 341.094,92.6406 338.23,77.0625 334.566,61.5898 l -0.015,-0.0781 c -0.61,-2.5703 -3.184,-4.1601 -5.754,-3.5429 -2.344,0.5507 -3.867,2.7421 -3.656,5.0703 2.808,31.7226 6.953,63.2809 11.722,94.7229 4.629,31.468 10.27,62.769 16.246,93.988 6.153,31.18 12.598,62.309 20.016,93.219 l 11.355,46.32 c 4.223,15.34 8.137,30.731 12.825,45.981 0.773,2.531 3.453,3.949 5.976,3.171 2.289,-0.699 3.66,-2.992 3.321,-5.289" /><path
         id="path170"
         style="fill:#bc3441;fill-opacity:1;fill-rule:nonzero;stroke:none"
         d="m 716.371,524.742 c 28.731,-27.883 54.223,-59 72.602,-95.773 4.715,-9.098 8.41,-18.899 11.101,-29.149 1.594,-5.011 2.059,-10.519 3.094,-15.789 0.562,-5.199 0.898,-10.332 1.117,-15.379 0.778,-20.203 0.399,-40.031 -0.316,-59.851 l -1.66,-29.621 -0.879,-14.7 -0.176,-3.511 -0.039,-0.989 0.195,-1.667 0.992,-7.301 c 2.586,-19.453 5.45,-38.871 7.629,-58.36 4.774,-38.972 9.352,-77.98 12.84,-117.2301 l 0.004,-0.0625 c 0.23,-2.6289 -1.707,-4.9375 -4.336,-5.1797 -2.441,-0.2109 -4.625,1.4726 -5.101,3.8203 -7.727,38.77 -14.364,77.781 -20.801,116.832 -3.422,19.508 -6.168,39.09 -9.188,58.648 l -1.109,7.34 c -0.078,0.68 -0.215,1.059 -0.25,1.989 l -0.016,2.703 0.125,3.867 0.656,14.82 1.176,29.422 c 0.832,19.551 1.653,39.149 1.18,58.348 -0.133,4.781 -0.367,9.511 -0.789,14.101 -0.871,4.391 -1.043,8.821 -2.395,13.219 -1.199,4.41 -2.242,8.852 -4.019,13.203 -1.41,4.418 -3.098,8.778 -5.059,13.098 -7.5,17.34 -17.383,34.012 -28.301,49.992 -10.699,16.129 -22.73,31.637 -35.113,46.5 l -0.144,0.18 c -1.688,2.019 -1.414,5.027 0.609,6.718 1.883,1.571 4.645,1.422 6.371,-0.238" /><path
         id="path172"
         style="fill:#191b2c;fill-opacity:1;fill-rule:nonzero;stroke:none"
         d="m 315.348,1454.95 c 2.316,2.75 -39.121,55.18 -53.426,28.86 -8.641,-15.92 43.262,-40.93 53.426,-28.86" /><path
         id="path174"
         style="fill:#191b2c;fill-opacity:1;fill-rule:nonzero;stroke:none"
         d="m 330.844,1467.74 c -8.723,-5.49 -50.16,60.07 -22.485,70.27 27.95,10.29 31.2,-64.78 22.485,-70.27" /><path
         id="path176"
         style="fill:#15141a;fill-opacity:1;fill-rule:nonzero;stroke:none"
         d="m 458.578,1059.01 c -14.824,5.57 -25.535,4.34 -32.672,-0.96 -2.129,0.86 -4.324,1.93 -6.445,3.34 -6.102,4.07 -14.777,16.85 -16.387,14.77 -1.605,-2.08 -4.051,-22.83 12.664,-39.66 l 0.278,-0.04 c 0.918,-11.67 11.316,-22.89 27.773,-27.92 23.188,-7.08 42.352,2.3 44.215,7.38 2.309,6.32 -5.5,34.13 -29.426,43.09" /><path
         id="path178"
         style="fill:#15141a;fill-opacity:1;fill-rule:nonzero;stroke:none"
         d="m 749.223,1094.67 c -1.856,1.87 -8.891,-11.89 -14.453,-16.67 -1.93,-1.65 -3.981,-2.98 -5.989,-4.1 -7.726,4.38 -18.511,4.28 -32.543,-3.05 -22.644,-11.84 -26.98,-40.39 -23.914,-46.38 2.469,-4.82 22.641,-11.77 44.785,-1.89 15.711,7 24.657,19.41 24.141,31.11 l 0.27,0.07 c 14.523,18.75 9.554,39.04 7.703,40.91" /><path
         id="path180"
         style="fill:#191b2c;fill-opacity:1;fill-rule:nonzero;stroke:none"
         d="m 397.254,1123.49 c 0.211,0.19 4.062,4.73 6.164,7.05 4.195,4.66 10.102,10.31 16.547,14.59 3.129,2.31 6.555,4.04 9.75,5.7 1.562,0.9 3.269,1.37 4.781,2.11 1.496,0.73 3.043,1.17 4.445,1.68 5.586,2.12 24.454,3.27 23.418,18.77 -1.125,16.44 -31.66,16.45 -55.054,3.97 -28.145,-15.01 -36.008,-35.67 -35.5,-47.59 0.476,-11.26 8.472,-14.13 15.386,-13.33 4.196,0.49 9.844,6.89 10.063,7.05" /><path
         id="path182"
         style="fill:#ffffff;fill-opacity:1;fill-rule:nonzero;stroke:none"
         d="m 504.77,939.902 c -17.325,-10.293 13.468,-90.461 97.984,-80.871 68.184,7.739 79.32,89.41 65.402,92.27 -13.914,2.859 -28.148,-11.571 -71.832,-14.512 -61.636,-4.137 -80.969,9.41 -91.554,3.113" /><path
         id="path184"
         style="fill:#3c3e85;fill-opacity:1;fill-rule:nonzero;stroke:none"
         d="m 436.141,1139.82 -2.403,-0.03 c -57.179,-1.28 -102.66,-48.83 -101.379,-106.02 0.625,-27.7 11.996,-53.5 32.02,-72.649 20.031,-19.152 46.426,-29.269 74.016,-28.719 27.699,0.618 53.5,11.989 72.644,32.008 19.152,20.031 29.352,46.32 28.731,74.02 -0.625,27.69 -11.993,53.49 -32.024,72.64 -19.445,18.6 -44.793,28.75 -71.605,28.75 z M 435.98,912.371 c -31.988,0 -62.222,12.109 -85.417,34.301 -23.887,22.828 -37.454,53.608 -38.196,86.648 -1.527,68.21 52.719,124.94 120.922,126.47 33.074,0.74 64.395,-11.42 88.281,-34.26 23.887,-22.84 37.453,-53.62 38.192,-86.65 0.746,-33.04 -11.426,-64.4 -34.266,-88.29 -22.84,-23.879 -53.617,-37.449 -86.652,-38.188 -0.953,-0.023 -1.914,-0.031 -2.864,-0.031" /><path
         id="path186"
         style="fill:#3c3e85;fill-opacity:1;fill-rule:nonzero;stroke:none"
         d="m 736.309,1146.56 -2.356,-0.03 c -27.699,-0.61 -53.5,-11.99 -72.648,-32.01 -19.149,-20.03 -29.352,-46.32 -28.731,-74.01 1.27,-56.401 47.551,-101.408 103.676,-101.408 l 2.352,0.027 c 57.183,1.293 102.664,48.863 101.382,106.031 -1.269,56.39 -47.554,101.4 -103.675,101.4 z m -0.067,-227.458 c -66.949,0 -122.152,53.687 -123.66,120.958 -0.742,33.03 11.426,64.39 34.27,88.28 22.836,23.89 53.613,37.45 86.652,38.19 68.289,1.27 124.941,-52.71 126.473,-120.92 1.527,-68.2 -52.715,-124.938 -120.926,-126.481 -0.938,-0.02 -1.875,-0.027 -2.809,-0.027" /><path
         id="path188"
         style="fill:#3c3e85;fill-opacity:1;fill-rule:nonzero;stroke:none"
         d="m 549.441,1034.22 c -1.972,0 -3.964,0.57 -5.699,1.79 -4.504,3.15 -5.64,9.31 -2.527,13.84 10.5,15.23 42.105,38.56 86.66,17.79 5.004,-2.34 7.172,-8.29 4.84,-13.3 -2.328,-5 -8.293,-7.15 -13.285,-4.83 -40.051,18.67 -60.91,-9.83 -61.778,-11.06 -1.961,-2.76 -5.058,-4.23 -8.211,-4.23" /><path
         id="path190"
         style="fill:#f57977;fill-opacity:1;fill-rule:nonzero;stroke:none"
         d="m 591.84,1044.18 c -22.758,-2.6 -36.27,-26.98 -31.606,-42.72 4.637,-15.651 22.782,-25.089 48.075,-19.37 22.851,5.172 25.789,27.02 24.308,36.63 -1.953,12.68 -19.222,27.91 -40.777,25.46" /><path
         id="path192"
         style="fill:#f791a5;fill-opacity:1;fill-rule:nonzero;stroke:none"
         d="m 1062.78,1302.69 c 2.5,-8.49 450.58,92.95 426.09,407.85 -26.6,341.92 -415.15,340.81 -570.69,221 -138.36,-106.59 -176.09,-324.22 6.668,-462.02 83.802,-63.18 205.702,-63.38 201.052,-82.07 -6.44,-25.83 -66.22,-74.2 -63.12,-84.76" /><g
         transform="scale(10)"
         id="g194"><text
           id="text198"
           style="font-variant:normal;font-weight:bold;font-size:15.72000027px;font-family:Amatic;-inkscape-font-specification:Amatic-Bold;writing-mode:lr-tb;fill:#ffffff;fill-opacity:1;fill-rule:nonzero;stroke:none"
           transform="matrix(1,0,0,-1,89.5813,164.575)"><tspan
             id="tspan196"
             y="0"
             x="0 4.75879 9.7558575 16.104004 18.859373 25.207506 29.037584 32.913574 37.296879 41.126957 46.960449">Kon'nichiwa</tspan></text>
</g><path
         id="path200"
         style="fill:#15757a;fill-opacity:1;fill-rule:nonzero;stroke:none"
         d="m 2197.22,842.051 c 15.56,-22.371 2.65,-45.949 -0.06,-50.309 -53.98,-22.344 -98.83,5.25 -98.83,5.25 l -3.32,1.129 c 0.66,1.609 1.34,3.031 2.1,4.449 10.8,19.629 73.63,18.731 71,34.578 -1.72,10.774 -75.77,16.934 -75.77,16.934 l -0.7,-0.023 -0.13,16.011 0.7,0.012 c 0,0 78.92,9.438 105.01,-28.031" /><path
         id="path202"
         style="fill:#15757a;fill-opacity:1;fill-rule:nonzero;stroke:none"
         d="m 1946.72,877.762 -2.03,-17.852 c -12.62,0.641 -135.16,6 -138.63,-28.98 -1.18,-11.801 17.99,-10.789 42.38,-9.778 32.18,1.328 73.46,2.657 89.18,-25.402 0,0 -110.4,-37.43 -215.11,-69.281 0,0 -27.98,3.922 -12.28,42.25 15.62,37.832 61.73,62 61.73,62 0,0 -30.59,18.57 11.93,36.953 42.53,18.297 162.73,10.078 162.73,10.078 l 0.1,0.012" /><path
         id="path204"
         style="fill:#4fc4be;fill-opacity:1;fill-rule:nonzero;stroke:none"
         d="m 2092.27,790.16 c -7.67,-25.558 -10.64,-77.129 -61.92,-78.308 -62.96,-1.442 -82.55,65.609 -92.63,83.707 1.22,-0.977 21.41,-19.258 62.27,-26.52 58.03,-10.398 92.28,21.121 92.28,21.121" /><path
         id="path206"
         style="fill:#1d8992;fill-opacity:1;fill-rule:nonzero;stroke:none"
         d="M 1739.56,30.9805 C 1624.9,56.6992 1538.11,93.6992 1532.81,123 c -9.63,54.109 67.34,513.809 189.7,603.469 85.62,62.793 215.11,69.281 215.11,69.281 l 0.1,-0.191 c 10.08,-18.098 31.04,-64.168 91.41,-66.629 51.25,-2.121 55.47,35.672 63.14,61.23 0.84,2.82 1.68,5.539 2.74,7.961 l 3.32,-1.129 c 0,0 45.05,3.137 98.83,-5.25 42.05,-6.531 89.33,-19.941 124.51,-47.32 119.85,-92.942 221.38,-555.223 203.09,-584.41 C 2513.81,142.582 2468.65,96.7305 2363.83,58.3516 2292.66,32.2617 2194,9.60938 2060.05,1.51953 1955.35,-4.75781 1837.34,9 1739.56,30.9805" /><path
         id="path208"
         style="fill:#c8743f;fill-opacity:1;fill-rule:nonzero;stroke:none"
         d="m 2269.01,1406.17 c -25.12,5.98 -49.28,18.17 -62.9,32.9 11.63,27.44 -5.1,72.61 -21.25,74.47 -23.95,2.71 -10.37,-39.82 21.25,-74.47 -5.51,-13.32 -17.73,-22.48 -39.98,-20.54 -56.31,4.84 -90.45,59.44 -131.29,104.3 -27.64,30.43 -58.48,56.4 -101.46,59.41 -54.79,3.85 -65.7,-34.58 -100.14,-56.8 l -0.2,-0.1 c -12.23,-7.96 -27.42,-13.78 -48.7,-14.92 16.08,-90.28 -38.15,-339.66 -38.15,-339.66 0,0 -31.91,33.74 -72.63,19.8 0,0 -49.01,197.61 -23.07,282.48 19.86,65.02 85.83,66.89 87.83,66.93 0,0 -11.65,69.58 66.6,116.21 78.35,46.53 232.24,91.94 330.08,71.97 97.73,-19.87 157.19,-103.66 212.07,-126.42 62.34,-25.81 103.83,4.26 106.58,-60.5 1.87,-42.07 -33.97,-78.72 -107.48,-64.94 -19.09,37.81 -61.88,75.62 -80.02,77.35 -26.76,2.54 -8.21,-57.19 71.68,-75.62 2.82,-0.65 5.64,-1.29 8.34,-1.73 9.07,-17.72 12.94,-35.44 6.43,-49.39 -11.78,-25.34 -48.51,-29.01 -83.59,-20.73" /><path
         id="path210"
         style="fill:#c8743f;fill-opacity:1;fill-rule:nonzero;stroke:none"
         d="m 2346.17,1476.29 c -2.7,0.44 -5.52,1.08 -8.34,1.73 -79.89,18.43 -98.44,78.16 -71.68,75.62 18.14,-1.73 60.93,-39.54 80.02,-77.35" /><path
         id="path212"
         style="fill:#c8743f;fill-opacity:1;fill-rule:nonzero;stroke:none"
         d="m 2184.86,1513.54 c 16.15,-1.86 32.88,-47.03 21.25,-74.47 -31.62,34.65 -45.2,77.18 -21.25,74.47" /><path
         id="path214"
         style="fill:#0f4a4a;fill-opacity:1;fill-rule:nonzero;stroke:none"
         d="m 2168.11,837.148 c 2.63,-15.847 -60.2,-14.949 -71,-34.578 -0.76,-1.418 -1.44,-2.84 -2.1,-4.449 -1.06,-2.422 -1.9,-5.141 -2.74,-7.949 l -0.63,63.887 0.7,0.023 c 0,0 74.05,-6.16 75.77,-16.934" /><path
         id="path216"
         style="fill:#fabd9a;fill-opacity:1;fill-rule:nonzero;stroke:none"
         d="m 2264.6,1190.33 c -1.52,15.27 2.86,165.29 4.41,215.84 -25.12,5.98 -49.28,18.17 -62.9,32.9 -5.52,-13.32 -17.73,-22.48 -39.98,-20.54 -56.31,4.84 -90.45,59.44 -131.29,104.3 -96.98,51.19 -196.74,4.91 -201.6,2.61 l -0.2,-0.1 c -12.23,-7.96 -27.42,-13.78 -48.7,-14.92 16.08,-90.28 -38.15,-339.66 -38.15,-339.66 0,0 -31.91,33.74 -72.63,19.8 -9.04,-2.99 -18.53,-8.49 -28.25,-17.2 -48.6,-43.92 4.18,-201.149 107.17,-170.51 0,0 58.01,-96.018 194.74,-120.381 l -0.5,-4.707 -2.03,-17.852 -7.07,-64.16 0.1,-0.191 c 1.22,-0.977 21.41,-19.258 62.27,-26.52 58.03,-10.398 92.28,21.133 92.28,21.133 l -0.63,63.887 -0.13,16.011 -0.12,10.899 -0.68,3.281 c 148.94,28.898 195,132.28 199.16,163.17 9.44,70.71 -22.51,115.76 -25.27,142.91" /><path
         id="path218"
         style="fill:#eea592;fill-opacity:1;fill-rule:nonzero;stroke:none"
         d="m 2044.54,850.832 c -34.6,0.008 -68.21,7.68 -97.76,27.469 l 0.44,4.168 c 19.82,-3.598 41.21,-5.617 64.37,-5.617 6.29,0 12.7,0.148 19.25,0.449 21.59,1.058 41.54,3.469 59.87,6.949 l 0.68,-3.281 0.12,-10.899 0.12,-14.968 c -15.72,-2.711 -31.5,-4.27 -47.09,-4.27" /><path
         id="path220"
         style="fill:#b26036;fill-opacity:1;fill-rule:nonzero;stroke:none"
         d="m 1933.38,1582.24 c 42.98,-3.01 73.82,-28.98 101.46,-59.41 -96.98,51.19 -196.74,4.91 -201.6,2.61 34.44,22.22 45.35,60.65 100.14,56.8" /><path
         id="path222"
         style="fill:#0f4a4a;fill-opacity:1;fill-rule:nonzero;stroke:none"
         d="m 1944.69,859.91 -7.07,-64.16 c -27.63,49.34 -134.29,7.809 -131.56,35.18 3.48,34.98 126.01,29.621 138.63,28.98" /><path
         id="path224"
         style="fill:#a55e34;fill-opacity:1;fill-rule:nonzero;stroke:none"
         d="m 2207.48,1438.5 c -1.83,-5.21 -4.8,-10.19 -9.02,-14.16 -4.31,-3.82 -9.62,-6.52 -15.17,-7.91 -11.24,-2.75 -22.48,-1.32 -33.22,1.05 -21.75,5.34 -40.14,18.79 -55.72,33.53 -31.02,30.04 -55.71,65.39 -87.28,92.85 -15.81,13.5 -33.61,24.6 -53.3,30.03 -9.73,2.56 -20.28,4.31 -29.83,3.52 -9.7,-1.1 -19.17,-4.67 -27.91,-10.05 -17.6,-10.64 -32.88,-25.93 -50.67,-38.27 -17.53,-12.46 -39.14,-21.5 -61.01,-19.98 l -1.25,1.39 1.24,1.24 c 21.14,1.13 40.43,10.27 56.96,22.99 16.88,12.39 31.59,27.98 50.19,40.01 9.23,5.96 19.95,10.68 31.47,11.99 11.71,0.99 22.52,-0.82 33.34,-3.49 21.69,-5.46 40.78,-17.91 56.89,-32.36 32.7,-28.89 55.18,-66.01 86.11,-94.58 15.28,-14.26 32.85,-26.22 52.64,-31.55 9.85,-2.51 20.32,-4.18 30.01,-2.36 9.76,1.54 18.37,7.86 22.81,17.25 l 1.96,0.7 0.76,-1.84" /><path
         id="path226"
         style="fill:#a55e34;fill-opacity:1;fill-rule:nonzero;stroke:none"
         d="m 2205.89,1440.48 c 0.14,2.07 -0.37,3.41 -0.17,4.45 0.17,1.67 0.23,3.52 0.46,5.21 0.21,3.49 0.22,6.96 0.04,10.44 -0.36,6.97 -1.89,13.85 -3.85,20.5 -1.9,6.66 -4.66,13.14 -8.25,18.67 -1.68,2.88 -3.79,5.27 -5.93,7.13 -2.25,1.73 -3.81,2.19 -6.76,2.24 -2.2,-0.36 -3.38,-1.13 -4.27,-3.67 -0.98,-2.42 -0.59,-5.93 -0.23,-9.17 1.09,-6.71 3.89,-13.4 7.29,-19.62 3.39,-6.26 7.21,-12.31 11.12,-18.33 l 5.8,-9.15 c 1.08,-1.69 1.83,-2.78 2.41,-4.07 0.64,-1.32 1.32,-2.93 2.32,-4.59 z m 0.38,-2.8 -4.81,3.66 c -1.83,1.45 -3.49,3.13 -4.63,4.36 -2.66,2.65 -5.16,5.45 -7.46,8.42 -4.6,5.92 -8.48,12.4 -11.68,19.26 -3.17,6.85 -6.18,13.8 -7.94,21.52 -0.63,3.96 -1.44,7.95 -0.33,12.65 0.18,1.14 0.52,2.3 1.25,3.47 0.68,1.16 1.16,2.41 2.34,3.26 2.05,2.16 4.59,2.96 7.15,3.66 4.39,0.72 10.28,-0.43 13.88,-3.37 3.51,-2.8 6.28,-6.01 8.44,-9.4 4.33,-6.81 7.01,-14.16 8.96,-21.63 1.86,-7.5 2.49,-15.24 2.23,-22.94 -0.1,-3.86 -0.76,-7.7 -1.63,-11.46 -0.57,-1.9 -1.24,-3.65 -1.92,-5.55 -0.99,-2.39 -2.77,-4.51 -3.78,-5.82 l -0.07,-0.09" /><path
         id="path228"
         style="fill:#a55e34;fill-opacity:1;fill-rule:nonzero;stroke:none"
         d="m 2347.49,1476.96 c 5.33,-7.5 9.24,-16.11 11.22,-25.47 1.93,-9.25 1.16,-19.98 -4.15,-28.57 -4.89,-8.75 -13.16,-14.94 -21.9,-18.82 -8.83,-3.88 -18.28,-5.59 -27.62,-6.24 -18.79,-1.27 -37.38,2.53 -54.73,8.98 -8.67,3.29 -16.95,7.55 -24.78,12.52 -7.83,4.93 -15.18,11.04 -20.37,18.81 l 0.36,1.85 1.56,-0.06 c 14.16,-10.68 29.64,-18.97 46.41,-24.27 16.55,-5.61 33.98,-8.66 51.24,-8.92 8.57,0.07 17.31,0.92 25.11,4.1 7.8,3 14.77,8.25 18.33,15.58 7.65,14.55 2.33,32.51 -3.31,49.16 l 0.93,1.89 1.7,-0.54" /><path
         id="path230"
         style="fill:#a55e34;fill-opacity:1;fill-rule:nonzero;stroke:none"
         d="m 2345.05,1477.13 c -1.77,2.23 -3.64,3.44 -4.64,4.97 l -4.61,6.2 c -3.11,4.14 -6.32,8.17 -9.58,12.17 -6.56,7.97 -13.83,15.31 -21.31,22.33 -7.44,7.06 -15.42,13.59 -23.81,19.03 -4.18,2.62 -8.53,5.15 -12.72,6.46 -1.92,0.39 -4.03,0.98 -5.53,0.6 -1.52,-0.29 -2.34,-0.78 -3.01,-1.99 -1.47,-2.52 -0.86,-7.56 0.75,-11.85 1.55,-4.47 4.11,-8.76 7.02,-12.79 5.83,-8.12 13.71,-14.88 22.25,-20.35 8.57,-5.5 17.83,-9.89 27.28,-13.85 4.71,-2.02 9.55,-3.8 14.41,-5.6 l 7.24,-2.45 c 1.84,-0.59 3.61,-1.84 6.19,-2.85 z m 2.21,-1.71 c -2.54,0.04 -5.86,-0.14 -9.13,0.33 l -8.04,1.36 c -5.25,1.04 -10.43,2.41 -15.53,4.12 -10.15,3.54 -19.9,8.38 -28.76,14.61 -8.84,6.24 -17.13,13.33 -24.08,21.9 -3.43,4.32 -6.55,9 -8.74,14.36 -1.98,5.31 -4.11,11.46 -1.13,18.75 1.52,3.63 5.45,6.48 9.09,7.16 3.72,0.89 6.87,0.26 10.06,-0.43 5.89,-1.73 10.7,-4.52 15.47,-7.36 9.19,-6.03 17.31,-13.15 24.97,-20.66 7.6,-7.58 14.39,-15.9 20.68,-24.54 3.17,-4.31 5.98,-8.87 8.67,-13.5 1.29,-2.37 2.4,-4.74 3.63,-7.2 1.5,-3.07 2.09,-6.5 2.81,-8.81 l 0.03,-0.09" /><path
         id="path232"
         style="fill:#115e66;fill-opacity:1;fill-rule:nonzero;stroke:none"
         d="m 2249.1,587.719 c 13.94,-43.059 26.86,-86.399 39.05,-129.977 12.25,-43.551 23.46,-87.39 34.18,-131.363 10.42,-44.047 20.18,-88.277 28.1,-132.887 7.87,-44.59 14.72,-89.562 15.78,-135.0506 0.03,-1.3203 -1.01,-2.4219 -2.32,-2.4492 -1.26,-0.0234 -2.32,0.9297 -2.44,2.1562 l -0.01,0.1016 -3.06,33.6016 -4.7,33.4574 c -3.64,22.242 -7.28,44.472 -11.85,66.57 -8.76,44.23 -18.37,88.34 -29.19,132.172 -10.38,43.941 -21.53,87.711 -33,131.39 -11.5,43.668 -23.08,87.36 -35.1,130.899 -0.36,1.269 0.38,2.582 1.64,2.949 1.23,0.34 2.52,-0.367 2.92,-1.57" /><path
         id="path234"
         style="fill:#115e66;fill-opacity:1;fill-rule:nonzero;stroke:none"
         d="m 1821.92,563.129 c -5.18,-21.77 -9.71,-43.797 -14.05,-65.809 -4.44,-22 -8.74,-44.019 -12.61,-66.129 -7.96,-44.171 -15.39,-88.449 -21.76,-132.871 -6.58,-44.41 -12.52,-88.91 -17.59,-133.519 -5.3,-44.582 -9.68,-89.2619 -13.97,-133.9885 -0.1,-1.3203 -1.25,-2.3008 -2.56,-2.2031 -1.28,0.1015 -2.25,1.25 -2.19,2.5312 1.38,22.4414 2.49,44.918 4.11,67.3594 1.89,22.43 3.55,44.871 5.92,67.25 4.19,44.82 10.25,89.43 16.4,134.012 6.72,44.519 14.23,88.918 22.97,133.07 8.8,44.16 18.63,88.09 30.72,131.527 0.36,1.27 1.67,2.02 2.94,1.661 1.23,-0.34 1.96,-1.649 1.67,-2.891" /><path
         id="path236"
         style="fill:#ba645d;fill-opacity:1;fill-rule:nonzero;stroke:none"
         d="m 1665.39,1105.51 c -2.21,9.88 -2.12,20.13 3.43,30.68 2.66,5.2 7.85,10.03 13.48,12.68 5.03,2.21 10.52,3.9 16.24,4.2 11.5,0.59 22.53,-3.52 30.53,-9.8 8.23,-6.21 14.37,-13.77 18.55,-22.9 1.11,-2.43 0.04,-5.29 -2.39,-6.41 -1.71,-0.78 -3.64,-0.48 -5.02,0.62 l -0.42,0.33 c -13.02,10.41 -27.42,19.41 -40.06,18.22 -3.2,-0.06 -6.36,-0.93 -9.55,-2.1 -2.61,-0.79 -4.32,-2.17 -6.45,-4.47 -3.96,-4.65 -6.76,-12.79 -8.82,-20.57 l -0.17,-0.66 c -0.68,-2.57 -3.31,-4.1 -5.89,-3.43 -1.79,0.48 -3.08,1.92 -3.46,3.61" /><path
         id="path238"
         style="fill:#f57977;fill-opacity:1;fill-rule:nonzero;stroke:none"
         d="m 2009.36,1255.67 c -6.94,-14.58 -16.69,-107.01 -11.71,-115.22 5.08,-8.4 63.53,-15.01 71.92,3.18 12.53,27.17 -14.39,108.29 -24.27,121.25 -9.59,12.59 -29.39,4.55 -35.94,-9.21" /><path
         id="path240"
         style="fill:#37a8a6;fill-opacity:1;fill-rule:nonzero;stroke:none"
         d="m 1940.39,796.781 c 13.61,-26.133 13.98,-57.832 4.01,-85.519 -4.73,-13.883 -12.4,-27.02 -18.65,-38.871 -6.51,-12.141 -11.94,-24.762 -17.06,-37.379 -9.91,-25.332 -18.26,-51.043 -20.81,-77.012 -0.91,-12.941 -0.34,-25.801 2.77,-38.258 3.66,-12.332 9.92,-23.41 17.19,-35.344 l 0.11,-0.179 c 0.77,-1.258 0.37,-2.899 -0.89,-3.66 -0.9,-0.547 -2,-0.5 -2.84,0.031 -12.22,7.98 -22.05,20.18 -27.74,34.262 -5.43,14.117 -7.69,29.277 -7.49,44.187 1.27,29.793 10.65,57.832 23.44,83.231 6.36,12.769 13.4,25.082 20.52,37.23 7.56,12.309 14.07,23.391 17.55,36.23 7.01,25.329 7.52,52.012 4.35,79 l -0.04,0.329 c -0.19,1.632 0.98,3.089 2.6,3.293 1.26,0.14 2.42,-0.52 2.98,-1.571" /><path
         id="path242"
         style="fill:#37a8a6;fill-opacity:1;fill-rule:nonzero;stroke:none"
         d="m 2094.21,792.391 c 26.03,-17.512 41.1,-50.743 37.34,-82.809 -0.79,-7.883 -2.42,-15.891 -4.46,-23.211 -1.91,-6.859 -3.01,-13.871 -3.78,-20.859 -1.5,-14.043 0,-28.082 3.2,-41.52 3.6,-13.422 8.79,-26.222 15.57,-39.043 6.77,-12.808 13.79,-28.84 14.88,-45.269 1.55,-16.598 -2.76,-33.188 -9.53,-47.379 -6.75,-14.332 -16.47,-26.61 -28.07,-36.539 -1.12,-0.961 -2.8,-0.832 -3.76,0.289 -0.72,0.84 -0.81,2.031 -0.35,2.961 6.61,13.457 13.69,26.019 18.53,39.058 4.8,13.051 6.55,26.602 4.45,39.582 -0.9,6.508 -2.62,12.918 -5.08,19.207 -2.33,6.321 -5.43,12.313 -8.95,19.153 -6.72,13.609 -12.69,28.59 -15.32,44.238 -2.77,15.66 -2.47,31.648 -0.29,47.09 1.14,7.75 3.07,15.281 5.04,22.762 1.88,6.988 3.32,13.57 3.54,20.519 0.96,27.527 -10.18,53.879 -26.84,77.32 l -0.19,0.27 c -0.95,1.34 -0.64,3.191 0.7,4.129 1.02,0.73 2.37,0.719 3.37,0.051" /><path
         id="path244"
         style="fill:#15141a;fill-opacity:1;fill-rule:nonzero;stroke:none"
         d="m 1934.83,1229.4 c 0.13,-16.71 -13.31,-30.36 -30.02,-30.5 -16.71,-0.13 -30.37,13.32 -30.5,30.02 -0.14,16.72 13.3,30.38 30.02,30.51 16.71,0.13 30.37,-13.31 30.5,-30.03" /><path
         id="path246"
         style="fill:#15141a;fill-opacity:1;fill-rule:nonzero;stroke:none"
         d="m 2189.82,1231.43 c 0.14,-16.71 -13.31,-30.37 -30.02,-30.5 -16.7,-0.13 -30.37,13.31 -30.5,30.03 -0.13,16.7 13.31,30.37 30.03,30.49 16.7,0.14 30.37,-13.31 30.49,-30.02" /><path
         id="path248"
         style="fill:#f68b79;fill-opacity:1;fill-rule:nonzero;stroke:none"
         d="m 1866.94,1006.99 c -47,0 -85.29,37.91 -85.66,84.98 -0.38,47.32 37.67,85.97 84.98,86.34 0.24,0 0.47,0 0.7,0 46.99,0 85.26,-37.9 85.64,-84.97 0.37,-47.32 -37.67,-85.97 -84.98,-86.35 -0.23,0 -0.45,0 -0.68,0" /><path
         id="path250"
         style="fill:#f68b79;fill-opacity:1;fill-rule:nonzero;stroke:none"
         d="m 2202.55,1009.44 c -46.98,0 -85.26,37.9 -85.64,84.98 -0.37,47.31 37.68,85.96 84.98,86.34 0.23,0 0.46,0 0.69,0 46.99,0 85.28,-37.91 85.65,-84.98 0.38,-47.3 -37.66,-85.97 -84.98,-86.34 -0.24,0 -0.47,0 -0.7,0" /><path
         id="path252"
         style="fill:#211d1c;fill-opacity:1;fill-rule:nonzero;stroke:none"
         d="m 1909.64,1123.74 c 13.94,-19.82 32.44,-37.01 52.74,-49.33 20.49,-12.31 43.68,-19.04 67.34,-19.33 23.7,-0.93 47,5.11 66.2,18.28 19.06,13.14 34.16,33.63 42.84,55.91 l 0.18,0.48 c 0.96,2.46 3.72,3.67 6.17,2.71 2.2,-0.86 3.41,-3.19 2.92,-5.43 -5.69,-26.29 -19.76,-50.63 -41.6,-67.81 -10.86,-8.45 -23.36,-14.94 -36.6,-18.94 -13.26,-3.75 -26.96,-5.53 -40.52,-5.17 l -10.18,0.42 c -3.38,0.31 -6.74,0.96 -10.1,1.44 -6.78,0.76 -13.31,2.84 -19.89,4.6 -12.78,4.56 -25.41,9.96 -36.35,17.9 -22.27,15.31 -39.93,35.76 -51.58,59.83 -1.15,2.36 -0.17,5.2 2.2,6.35 2.13,1.04 4.65,0.34 5.97,-1.54 l 0.26,-0.37" /><path
         id="path254"
         style="fill:#9e5b32;fill-opacity:1;fill-rule:nonzero;stroke:none"
         d="m 1894.25,1316.67 c 20.74,13.86 43.39,15.63 42.95,37.12 -0.4,20.24 -27.75,27.32 -52.14,17.64 -29.33,-11.64 -40.11,-34.86 -41.5,-49.42 -1.32,-13.76 6.08,-18.04 12.65,-19.74 11.06,-2.85 31.19,10.72 38.04,14.4" /><path
         id="path256"
         style="fill:#9e5b32;fill-opacity:1;fill-rule:nonzero;stroke:none"
         d="m 2155.08,1318.74 c -20.96,13.53 -43.64,14.94 -43.54,36.43 0.09,20.26 27.32,27.77 51.86,18.48 29.51,-11.18 40.66,-34.23 42.28,-48.76 1.54,-13.74 -5.8,-18.13 -12.34,-19.94 -11.01,-3.03 -31.36,10.21 -38.26,13.79" /><path
         id="path258"
         style="fill:#4fc4be;fill-opacity:1;fill-rule:nonzero;stroke:none"
         d="m 2571.62,1504.35 c 2.36,-8.31 385.73,90.23 356.56,397.93 -31.68,334.14 -366.33,333.56 -497.24,216.71 -116.45,-103.97 -143.37,-316.56 17.58,-451.44 73.81,-61.86 178.82,-62.21 175.29,-80.46 -4.88,-25.24 -55.13,-72.42 -52.19,-82.74" /><g
         transform="scale(10)"
         id="g260"><text
           id="text264"
           style="font-variant:normal;font-weight:bold;font-size:23.35899925px;font-family:Amatic;-inkscape-font-specification:Amatic-Bold;writing-mode:lr-tb;fill:#ffffff;fill-opacity:1;fill-rule:nonzero;stroke:none"
           transform="matrix(1,0,0,-1,246.119,180.683)"><tspan
             id="tspan262"
             y="0"
             x="0 6.386724 13.469726 18.796871 24.122723">Hall</tspan></text>
</g><path
         id="path266"
         style="fill:#451b15;fill-opacity:1;fill-rule:nonzero;stroke:none"
         d="m 3388.39,1171.89 c -3.31,-14.41 -12.92,-25.59 -24.16,-33.92 -5.7,-4.08 -11.83,-7.57 -18.24,-10.23 -6.46,-2.73 -11.5,-5.18 -16.8,-8.45 -10.33,-6.47 -18.7,-15.32 -22.85,-25.5 -4.15,-10.22 -2.83,-21.29 3.49,-30.07 3.19,-4.33 7.21,-7.66 12.19,-9.84 5.15,-2.32 11.69,-3.78 18.65,-6.86 7.1,-3.27 14.26,-8.38 17.57,-17.66 1.57,-4.57 1.36,-10.09 -0.55,-14.48 -1.84,-4.43 -4.72,-7.9 -7.97,-10.6 -6.8,-5.53 -14.27,-7.389 -20.34,-9.401 -5.97,-1.887 -11.44,-4.188 -16.69,-7.199 -10.34,-6.008 -19.13,-14.438 -24.11,-24.489 -4.93,-9.73 -6.12,-21.652 -2.95,-31.671 3.13,-10.161 10,-17.739 19.84,-20.239 9.57,-2.75 20.49,-0.242 25.36,6.149 1.14,1.441 1.51,2.82 1.44,2.968 l -0.32,0.372 c -1.68,1.101 -3.93,1.55 -7.61,-0.801 -3.58,-2.199 -7.47,-6.989 -10.74,-11.66 -3.29,-4.739 -5.92,-10 -7.9,-15.528 -3.96,-11.082 -5.25,-23.312 -3.67,-35.172 3.35,-23.847 17.71,-45.937 37.58,-62.238 1.14,-0.922 1.32,-2.582 0.41,-3.723 -0.78,-0.968 -2.12,-1.226 -3.19,-0.726 -24.6,11.68 -44.3,35.75 -49.66,64.219 -2.71,14.148 -2.04,28.941 2.07,42.961 2.06,7.007 4.98,13.82 8.86,20.16 3.99,6.258 8.22,12.25 15.58,17.539 3.77,2.539 8.12,4.648 13.77,5.179 5.51,0.391 10.81,-0.839 15.67,-4.082 4.86,-2.988 9.03,-9.757 8.89,-16.226 0.04,-6.5 -2.6,-11.422 -5.39,-15.192 -11.76,-14.929 -31.29,-17.878 -46.65,-13.199 -7.86,2.34 -15.26,6.61 -21.09,12.871 -5.65,6.118 -9.59,13.528 -11.54,21.239 -3.98,15.418 -1.48,31.55 6.04,45 7.49,13.308 19.24,23.148 31.91,29.769 6.3,3.39 13.15,5.99 19.8,7.87 6.44,1.8 12.12,3.43 15.68,6.27 3.89,3.05 5.37,6.61 4.19,9.71 -1.03,3.4 -5.19,7.18 -9.96,9.18 -5.12,2.26 -11.62,3.46 -18.64,6.28 -7.22,2.85 -13.9,7.97 -18.59,14.22 -4.77,6.26 -7.98,13.73 -9.01,21.71 -0.92,8.05 0.57,16.07 3.52,23.15 5.92,14.44 17.92,24.53 30.27,31.2 6.03,3.51 13.37,5.76 19.24,7.71 5.93,1.95 11.55,4.64 16.81,7.86 10.41,6.26 19.83,15.71 24.02,26.79 l 0.17,0.47 c 0.58,1.52 2.27,2.28 3.78,1.7 1.39,-0.53 2.14,-1.99 1.82,-3.39" /><path
         id="path268"
         style="fill:#ca4e3f;fill-opacity:1;fill-rule:nonzero;stroke:none"
         d="m 4026.11,1078.55 c -3.59,2.2 -7.5,4.1 -11.7,5.61 -7.9,2.79 -15.5,3.49 -22.69,2.9 -33.11,-2.9 -56.91,-35.11 -56.91,-35.11 -24.29,48.01 2.1,83.8 2.1,83.8 0,0 -25.4,12.9 -44.6,48.91 -34.29,64.39 1.11,123.19 1.11,123.19 0,0 -28.4,-10 -73,14 -44.6,24.11 -54.1,89.51 -54.1,89.51 0,0 -58.11,-39.2 -144.41,-40.61 -67.5,-1.09 -61.79,30.8 -61.79,30.8 0,0 -62.1,-62.39 -108.5,-69.2 0,0 -56.9,-19.1 -67.9,-101.79 0,0 -10.51,-172.71 -12.4,-190 -2,-17.2 -36.3,-123.208 -24.5,-153.208 10.6,-27.2 78.6,-126.704 231.2,-150.903 0,0 -4.51,-61.89 -8.1,-70.398 -3.7,-8.391 -158.5,-24.391 -224.8,-106.391 -56.7,-70.101 -97.9,-329.601 -108.7,-403.699 -1.8,-12.102 4.5,-24.012 15.49,-29.301 22.31,-10.699 64.41,-28.6991 124.2,-45.1092 l 0.21,0.9101 16.79,159.3011 c 0,0 -25.69,69.199 -27.29,109.39 -2.8,72.399 87.2,155.11 87.2,155.11 19.29,14.597 145.8,-73.801 174.79,-104.41 0,0 116.71,76 181.31,94.41 0,0 1.49,-1.102 3.99,-3.203 5.5,55.703 25.61,160.492 25.61,160.492 -50.7,11.508 -102.71,19.008 -102.71,19.008 l -9.79,69.601 c 145.5,39.391 210,172.192 210,172.192 0,0 42.79,-20.301 76.8,1.609 52.99,34.191 62.8,131.889 13.09,162.589" /><path
         id="path270"
         style="fill:#fbc151;fill-opacity:1;fill-rule:nonzero;stroke:none"
         d="m 3813.11,493.059 c 16.91,-14.2 81.41,-72.707 85.61,-144.2 1.99,-34.41 -16.01,-98.609 -15.11,-123.707 0.4,-10.492 8.11,-122.5 10.21,-151.7926 -47.71,-14.1992 -108.11,-24.8086 -184.6,-27.8008 -139.5,-5.5 -252.4,13.793 -333.11,35.9922 l 0.21,0.9101 16.79,159.3011 c 0,0 -25.7,69.199 -27.29,109.39 -2.8,72.399 87.2,155.11 87.2,155.11 19.29,14.597 145.8,-73.801 174.79,-104.41 0,0 116.71,76 181.31,94.41 0,0 1.49,-1.11 3.99,-3.203" /><path
         id="path272"
         style="fill:#451b15;fill-opacity:1;fill-rule:nonzero;stroke:none"
         d="m 3391.22,1405.46 c -17.8,-53.3 25.9,-78.11 60.4,-73.11 0,0 -56.9,-19.1 -67.9,-101.79 -70.3,-2.81 -71.1,101.1 -24.4,152.29 8.79,9.9 19.6,17.8 31.9,22.61" /><path
         id="path274"
         style="fill:#451b15;fill-opacity:1;fill-rule:nonzero;stroke:none"
         d="m 4051.11,1583.06 c -10.5,-22.2 31.2,-24.6 14.5,-81.4 -16.6,-56.81 -77,-62.31 -77,-62.31 -23.4,32.6 -47.9,57.2 -66.3,70.21 -66.39,47.1 -150.8,48.69 -150.8,48.69 0,0 -14.69,12 -46.2,20.11 -22.1,74.6 50,91.2 61.41,99.7 15.4,11.5 2.69,82.5 75,88.3 72.2,5.8 76.8,-35.71 93,-50.4 14.6,-13 42.3,17.99 85.7,-26 43.4,-44 21.2,-84.61 10.69,-106.9" /><path
         id="path276"
         style="fill:#451b15;fill-opacity:1;fill-rule:nonzero;stroke:none"
         d="m 3455.61,1464.56 v 0.1 c 0,0 29.91,21.2 137.71,27.1 122.9,6.79 161.4,37.1 161.4,37.1 0,0 30.19,-60.4 94.9,-114.51 162.1,-135.7 148.19,-235.49 141.6,-322.1 l 0.5,-5.19 c -33.11,-2.9 -56.91,-35.11 -56.91,-35.11 -24.29,48.01 2.1,83.8 2.1,83.8 0,0 -25.4,12.9 -44.6,48.91 -34.29,64.39 1.11,123.19 1.11,123.19 0,0 -28.4,-10 -73,14 -44.6,24.11 -54.1,89.51 -54.1,89.51 0,0 -58.11,-39.2 -144.41,-40.61 -67.5,-1.09 -61.79,30.8 -61.79,30.8 0,0 -62.1,-62.39 -108.5,-69.2 -34.5,-5 -78.2,19.81 -60.4,73.11 12.39,37.29 45.6,53.09 64.39,59.1" /><path
         id="path278"
         style="fill:#ca4e3f;fill-opacity:1;fill-rule:nonzero;stroke:none"
         d="m 3919.91,627.652 c 120.8,-66.691 147.61,-429.101 147.61,-429.101 0,0 -24.71,-80.699 -173.7,-125.1916 -2.1,29.2926 -9.81,141.3006 -10.21,151.7926 -0.9,25.098 17.1,89.297 15.11,123.707 -4.2,71.493 -68.7,130 -85.61,144.2 5.5,55.703 25.61,160.492 25.61,160.492 32.2,-7.289 63.69,-16.199 81.19,-25.899" /><path
         id="path280"
         style="fill:#f0e1f2;fill-opacity:1;fill-rule:nonzero;stroke:none"
         d="m 3576.19,713.992 v 0 c 1.08,12.258 1.8,22.117 1.83,22.449 -0.03,-0.332 -0.75,-10.171 -1.83,-22.449 m 1.83,22.457 v 0 0" /><path
         id="path282"
         style="fill:#b9443c;fill-opacity:1;fill-rule:nonzero;stroke:none"
         d="m 3638.79,704.441 c -21.23,0 -42.33,3.09 -62.6,9.551 1.08,12.278 1.8,22.117 1.83,22.449 0,0.008 0,0.008 0,0.008 v 0 0 c 15.8,-2.5 32.5,-4.187 50.19,-4.898 4.85,-0.199 9.64,-0.301 14.37,-0.301 30.43,0 58.27,4.07 83.64,10.91 l 2.73,-19.449 c -28.95,-11.902 -59.69,-18.27 -90.16,-18.27" /><path
         id="path284"
         style="fill:#2b1413;fill-opacity:1;fill-rule:nonzero;stroke:none"
         d="m 3559.07,1401.53 c -3.12,19.16 0.37,39.29 9.47,56.97 4.54,8.86 11.17,16.71 18.87,22.98 7.54,6.63 17.17,10.17 26.4,12.55 l 1.07,-0.62 -0.36,-0.96 -0.08,-0.06 c -7.91,-5.28 -15.53,-10.23 -21.56,-16.94 -6.05,-6.55 -11.57,-13.57 -15.51,-21.62 -4.19,-7.89 -7.39,-16.36 -10.04,-25.11 -2.48,-8.77 -4.7,-17.83 -6.15,-27.11 l -0.01,-0.08 -1.21,-0.88 -0.89,0.88" /><path
         id="path286"
         style="fill:#2b1413;fill-opacity:1;fill-rule:nonzero;stroke:none"
         d="m 3765.3,1411.76 c 1.7,11.01 8.19,19.86 15.22,27.44 7.29,7.43 15.67,13.76 25.67,17.44 l 1.18,-0.55 -0.1,-0.84 c -5.98,-8.72 -12.84,-15.77 -19.53,-22.96 l -10.18,-10.54 c -3.32,-3.56 -6.94,-7.02 -10.29,-10.75 l -0.11,-0.12 -1.52,-0.08 -0.34,0.96" /><path
         id="path288"
         style="fill:#2b1413;fill-opacity:1;fill-rule:nonzero;stroke:none"
         d="m 3892.51,1308.33 c 1.01,8.44 5.73,15.33 11.37,20.95 5.81,5.45 12.97,9.72 21.24,10.63 l 1.04,-0.84 -0.2,-0.69 c -4.94,-6.47 -10.08,-11.21 -15.14,-16.28 -5.18,-4.93 -10.19,-9.86 -16.43,-14.71 l -0.09,-0.08 -1.57,0.2 -0.22,0.82" /><path
         id="path290"
         style="fill:#2b1413;fill-opacity:1;fill-rule:nonzero;stroke:none"
         d="m 3936.12,1136.49 c 5.63,10.19 14.7,17.7 24.87,23.05 5.11,2.61 10.66,4.53 16.36,5.53 5.68,1.18 11.65,0.84 17.24,-0.35 l 0.69,-1.07 -0.55,-0.66 -0.07,-0.02 c -5.31,-1.98 -10.26,-3.68 -15.06,-5.73 -4.78,-2.09 -9.51,-4.1 -14.06,-6.6 -9.27,-4.68 -18.14,-10.2 -27.87,-15.58 l -0.08,-0.04 -1.47,0.43 v 1.04" /><path
         id="path292"
         style="fill:#fbc151;fill-opacity:1;fill-rule:nonzero;stroke:none"
         d="m 3357.81,1384.35 c 0,0 20.11,139.91 205.61,187.71 75.1,19.3 128.2,15 161.89,6.3 31.51,-8.11 46.2,-20.11 46.2,-20.11 0,0 84.41,-1.59 150.8,-48.69 18.4,-13.01 42.9,-37.61 66.3,-70.21 61.3,-85.09 115.8,-225.49 37.5,-360.8 -3.59,2.2 -7.5,4.1 -11.7,5.61 -7.9,2.79 -15.49,3.49 -22.69,2.9 l -0.5,5.19 c 6.59,86.61 20.5,186.4 -141.6,322.1 -64.71,54.11 -94.9,114.51 -94.9,114.51 0,0 -38.5,-30.31 -161.4,-37.1 -107.8,-5.9 -137.71,-27.1 -137.71,-27.1 v -0.1 c -18.79,-6.01 -52,-21.81 -64.39,-59.1 -12.3,-4.81 -23.11,-12.71 -31.9,-22.61 l -1.51,1.5" /><path
         id="path294"
         style="fill:#2b1413;fill-opacity:1;fill-rule:nonzero;stroke:none"
         d="m 3420.47,1445.3 c -7.55,-5.63 -14.21,-12.27 -18.85,-20.25 -4.95,-7.72 -8.3,-16.36 -9.86,-25.25 -1.53,-8.86 -1.48,-17.94 0.55,-26.53 2.03,-8.67 5.85,-16.37 12.52,-21.5 13.64,-10.66 32.7,-14.89 50.67,-13.87 18.21,1.14 36.21,8.2 50.75,20.32 l 1.24,-0.09 0.01,-1.14 c -12.54,-14.95 -31.4,-24.52 -51.2,-27.1 -19.81,-2.55 -40.93,1.33 -57.78,14.13 -8.57,6.75 -13.65,17.26 -15.57,27.17 -1.92,10.1 -1.84,20.58 0.8,30.36 4.79,19.6 17.98,36.99 35.65,45.57 l 1.41,-0.5 -0.34,-1.32" /><path
         id="path296"
         style="fill:#fbc151;fill-opacity:1;fill-rule:nonzero;stroke:none"
         d="m 3843.08,652.719 c -2.99,-29.989 -7.09,-59.77 -11.28,-89.469 -3.83,-29.621 -8.18,-59.66 -10.09,-88.5 l -0.04,-0.539 c -0.36,-5.512 -5.13,-9.68 -10.64,-9.309 -5.5,0.36 -9.67,5.129 -9.3,10.637 v 0.02 c 1.06,15.621 2.55,30.82 4.94,45.781 2.16,15.019 4.82,29.902 7.63,44.742 5.46,29.707 11.87,59.168 20.05,88.309 0.67,2.371 3.13,3.75 5.5,3.089 2.11,-0.601 3.44,-2.648 3.23,-4.761" /><path
         id="path298"
         style="fill:#eb8015;fill-opacity:1;fill-rule:nonzero;stroke:none"
         d="m 3771.68,1536.63 c -7.97,3.16 -4.31,142.68 58.66,176.56 43.77,23.55 86.13,-44.3 78.18,-69.67 -11.24,-35.86 -100.42,-121.36 -136.84,-106.89" /><path
         id="path300"
         style="fill:#983421;fill-opacity:1;fill-rule:nonzero;stroke:none"
         d="m 3955.46,1004.22 c 0.38,6.96 2.64,12.92 6.23,18.62 3.53,5.65 8.7,10.59 14.95,14.07 6.24,3.42 13.61,5.28 20.57,4.63 6.99,-0.24 13.36,-2.82 18.66,-6.41 2.26,-1.55 2.86,-4.63 1.32,-6.9 -0.82,-1.21 -2.08,-1.94 -3.42,-2.13 l -0.69,-0.1 c -5.66,-0.77 -10.55,-0.87 -14.93,-2.06 -4.4,-0.93 -8.25,-2.37 -11.87,-4.52 -3.7,-1.97 -7.22,-4.67 -10.83,-7.8 -3.53,-3.13 -7.22,-6.99 -11.01,-10.6 l -0.67,-0.64 c -1.97,-1.88 -5.09,-1.798 -6.96,0.18 -0.97,1.01 -1.42,2.36 -1.35,3.66" /><path
         id="path302"
         style="fill:#451b15;fill-opacity:1;fill-rule:nonzero;stroke:none"
         d="m 3939.45,1058.9 c -2.36,-4.94 -5.86,-8.13 -9.05,-11.42 -3.21,-3.27 -6.6,-6.14 -9.64,-9.13 -3.02,-2.94 -5.86,-6.08 -7.37,-8.91 -1.52,-3.27 -1.15,-2.91 0.26,-6.29 2.7,-5.27 9.93,-10.04 16.99,-17.01 3.55,-3.39 7.22,-8.269 9.08,-13.55 1.95,-5.258 2.65,-10.801 2.33,-16.231 -0.43,-5.429 -1.83,-10.82 -4.48,-15.679 -2.61,-4.91 -6.51,-9.16 -10.61,-12.328 -8.4,-6.411 -17.5,-9.301 -25.1,-13.071 -7.53,-3.511 -14.23,-7.851 -18.76,-13.539 -4.52,-5.543 -6.44,-12.453 -5.42,-18.39 0.93,-5.711 4.88,-9.75 11.58,-13.481 6.41,-3.879 15.15,-6.562 24.14,-12.422 4.35,-2.859 8.73,-6.398 12.28,-11.457 3.62,-4.883 6.1,-11.801 5.78,-18.5 -0.16,-6.781 -2.85,-12.941 -5.85,-17.41 -3.03,-4.59 -6.31,-8.184 -9.29,-11.492 -6.15,-6.738 -10.29,-11.551 -12.68,-18.719 -2.36,-6.871 -2.83,-14.551 -0.95,-21.539 3.76,-13.703 17.37,-25.383 33.92,-26.352 l 0.12,-0.011 c 1.46,-0.09 2.58,-1.34 2.5,-2.797 -0.07,-1.133 -0.84,-2.063 -1.86,-2.383 -19.09,-6.047 -42,6.492 -48.93,26.891 -3.61,9.949 -3.86,20.82 -1.32,31 2.23,10.191 9.08,19.992 14.82,26.351 12.49,14.551 13.31,20.68 0.38,29.969 -5.76,4.18 -14.2,7.051 -22.96,12.461 -4.29,2.758 -8.77,6.187 -12.4,10.988 -3.67,4.672 -6.12,10.852 -6.64,16.75 -1.14,11.84 3.72,23.012 10.95,30.742 7.14,7.829 16.08,12.891 24.74,16.481 8.57,3.457 16.58,6.437 22.34,10.969 5.86,4.339 8.49,10.761 8.81,17.75 0.08,3.429 -0.5,6.859 -1.75,9.91 -1.34,3.031 -2.95,5.531 -5.71,8.39 -5.15,5.719 -13.87,10.799 -18.85,21.979 -1.01,2.88 -1.93,5.41 -1.73,9.72 0.38,3.87 2,6.87 3.62,9.23 3.44,4.58 7.28,7.47 11,10.28 7.22,5.56 15.62,9.7 20.6,15.18 l 0.27,0.31 c 1.09,1.21 2.96,1.3 4.16,0.21 0.98,-0.9 1.22,-2.31 0.68,-3.45" /><path
         id="path304"
         style="fill:#fbc151;fill-opacity:1;fill-rule:nonzero;stroke:none"
         d="m 3482.56,638.641 c -1.79,-23.532 -4.04,-47.071 -6.45,-70.493 l -6.22,-70.398 c -0.49,-5.508 -5.33,-9.578 -10.84,-9.09 -5.46,0.469 -9.51,5.27 -9.1,10.731 1.85,23.769 4.76,47.461 8.58,71 3.69,23.57 8.27,46.961 15.32,69.988 0.72,2.363 3.21,3.68 5.56,2.973 2.04,-0.633 3.3,-2.571 3.15,-4.61 v -0.101" /><path
         id="path306"
         style="fill:#ad382d;fill-opacity:1;fill-rule:nonzero;stroke:none"
         d="m 3614.13,1025.33 c -25.21,0 -45.63,15.59 -45.63,34.81 0,19.21 20.42,34.8 45.63,34.8 25.2,0 45.63,-15.59 45.63,-34.8 0,-19.22 -20.43,-34.81 -45.63,-34.81" /><path
         id="path308"
         style="fill:#c03632;fill-opacity:1;fill-rule:nonzero;stroke:none"
         d="m 3799.81,872.469 c -44.3,0 -80.22,35.922 -80.22,80.222 0,44.301 35.92,80.219 80.22,80.219 44.31,0 80.22,-35.918 80.22,-80.219 0,-4.73 -0.41,-9.359 -1.2,-13.871 -2.66,-2.019 -5.21,-4.3 -7.56,-6.879 -7.23,-7.73 -12.09,-18.902 -10.95,-30.742 0.03,-0.347 0.07,-0.699 0.11,-1.047 -14.7,-16.961 -36.4,-27.683 -60.62,-27.683" /><path
         id="path310"
         style="fill:#3e1714;fill-opacity:1;fill-rule:nonzero;stroke:none"
         d="m 3860.43,900.152 c -0.04,0.348 -0.08,0.7 -0.11,1.047 -1.14,11.84 3.72,23.012 10.95,30.742 2.35,2.579 4.9,4.86 7.56,6.879 -2.55,-14.629 -9.06,-27.91 -18.4,-38.668" /><path
         id="path312"
         style="fill:#c03632;fill-opacity:1;fill-rule:nonzero;stroke:none"
         d="m 3459.92,892.07 c -41.1,0 -74.41,33.321 -74.41,74.41 0,41.11 33.31,74.43 74.41,74.43 41.1,0 74.42,-33.32 74.42,-74.43 0,-41.089 -33.32,-74.41 -74.42,-74.41" /><path
         id="path314"
         style="fill:#1f1212;fill-opacity:1;fill-rule:nonzero;stroke:none"
         d="m 3707.64,1083.05 c -0.06,-17.46 12.95,-31.63 29.02,-31.7 16.08,-0.1 29.24,13.96 29.32,31.42 0.07,17.4 -12.88,31.59 -28.98,31.68 -16.1,0.08 -29.21,-13.97 -29.36,-31.4" /><path
         id="path316"
         style="fill:#1f1212;fill-opacity:1;fill-rule:nonzero;stroke:none"
         d="m 3783.97,1126.33 c 9.01,-7.16 -17.31,-45.91 -49.1,-45.96 0,0 -18.81,11.72 -8.22,20.12 7.12,5.67 14.43,3.55 28.65,9.73 19.06,8.3 24.38,19.6 28.67,16.11" /><path
         id="path318"
         style="fill:#1f1212;fill-opacity:1;fill-rule:nonzero;stroke:none"
         d="m 3527.16,1091.84 c 0.05,-17.45 -12.95,-31.62 -29.04,-31.7 -16.07,-0.1 -29.22,13.97 -29.31,31.43 -0.08,17.4 12.88,31.58 28.98,31.68 16.11,0.07 29.21,-13.97 29.37,-31.41" /><path
         id="path320"
         style="fill:#1f1212;fill-opacity:1;fill-rule:nonzero;stroke:none"
         d="m 3450.82,1135.13 c -9.01,-7.17 17.31,-45.91 49.09,-45.97 0,0 18.81,11.72 8.22,20.12 -7.11,5.67 -14.42,3.55 -28.65,9.74 -19.06,8.29 -24.37,19.6 -28.66,16.11" /><path
         id="path322"
         style="fill:#9f232d;fill-opacity:1;fill-rule:nonzero;stroke:none"
         d="m 3615.35,906.152 c 46.7,7.7 92.3,-25.101 92.3,-25.101 -17.6,-21.903 -44.6,-39.301 -86.21,-41.903 -37,-2.296 -65.69,9.204 -86.69,26.004 0,0 26.1,31.899 80.6,41" /><path
         id="path324"
         style="fill:#1f1212;fill-opacity:1;fill-rule:nonzero;stroke:none"
         d="m 3739.35,977.449 c 0.2,-13.898 -3.31,-60.898 -31.7,-96.398 0,0 -45.6,32.801 -92.3,25.101 -54.5,-9.101 -80.6,-41 -80.6,-41 -40.9,32.7 -53.1,85.598 -41.9,97.2 23.1,23.898 246.19,37.597 246.5,15.097" /><path
         id="path326"
         style="fill:#451b15;fill-opacity:1;fill-rule:nonzero;stroke:none"
         d="m 3485.95,1175.04 c 19.41,8.76 38.74,7.08 41.38,25.24 2.5,17.11 -19.54,26.92 -41.44,22.18 -26.35,-5.69 -38.68,-23.74 -41.9,-35.81 -3.04,-11.41 2.59,-16.06 7.89,-18.4 8.91,-3.95 27.78,4.65 34.07,6.79" /><path
         id="path328"
         style="fill:#451b15;fill-opacity:1;fill-rule:nonzero;stroke:none"
         d="m 3755.21,1175.04 c -19.4,8.76 -38.73,7.08 -41.38,25.24 -2.5,17.11 19.55,26.92 41.44,22.18 26.35,-5.69 38.69,-23.74 41.91,-35.81 3.03,-11.41 -2.6,-16.06 -7.89,-18.4 -8.92,-3.95 -27.79,4.65 -34.08,6.79" /><path
         id="path330"
         style="fill:#f69620;fill-opacity:1;fill-rule:nonzero;stroke:none"
         d="m 3769.77,1539.15 c -12.56,-9.35 -139.36,71.85 -127.92,140.99 4.81,29.16 71.63,46.7 93.27,24.48 55.97,-57.52 52.99,-151.85 34.65,-165.47" /><path
         id="path332"
         style="fill:#f8a42e;fill-opacity:1;fill-rule:nonzero;stroke:none"
         d="m 3734.77,1575.69 c -27.28,-11.81 -36.01,-56.77 10.26,-77.38 54.57,-24.31 86.04,13.7 78.86,40.32 -5.8,21.49 -55.89,51.45 -89.12,37.06" /><path
         id="path334"
         style="fill:#f9d618;fill-opacity:1;fill-rule:nonzero;stroke:none"
         d="m 3186.76,837.359 c 1,-8.578 -390.77,-65.097 -482.2,230.171 -99.28,320.61 209.85,448.8 375.64,391.29 147.48,-51.18 254.1,-237.06 157.41,-423.48 -44.35,-85.488 -141.14,-126.199 -130.85,-141.688 14.21,-21.41 78.74,-45.64 80,-56.293" /><g
         transform="scale(10)"
         id="g336"><text
           id="text340"
           style="font-variant:normal;font-weight:bold;font-size:23.35899925px;font-family:Amatic;-inkscape-font-specification:Amatic-Bold;writing-mode:lr-tb;fill:#ffffff;fill-opacity:1;fill-rule:nonzero;stroke:none"
           transform="matrix(1,0,0,-1,281.221,110.368)"><tspan
             id="tspan338"
             y="0"
             x="0 6.5171609 11.702859 17.027735 22.354881 29.779673">hello!</tspan></text>
</g><path
         id="path342"
         style="fill:#f68a75;fill-opacity:1;fill-rule:nonzero;stroke:none"
         d="m 3874.01,3291.93 c -19.49,11.8 -45.8,11.2 -71.09,-10.5 0,0 -43.3,64.3 -22.61,269.2 -33.29,10.5 -61.09,34.6 -88.89,60.2 l -1.21,-1.3 c -168.3,89.4 -291.89,5.9 -299.79,0.3 l -0.21,-0.2 c -10.19,-14.1 -19.19,-28.9 -27.19,-43.4 -18.8,-34.3 -40.21,-96.4 -82.1,-134.4 0,0 -10.1,-135.9 -20.5,-162.8 -10.3,-26.9 -31.01,-58 -18.6,-118 10.6,-51.2 88.79,-148 249.9,-166.2 l -3.21,-63.8 -0.49,-9 c 0,0 25.7,-23.8 87,-26.8 67.5,-3.3 90.9,49.2 90.9,49.2 l -7.5,63 c 128.49,42.6 152,160.8 152,160.8 0,0 35.5,-23.8 68.4,13.5 41.3,46.7 27.69,100.6 -4.81,120.2" /><path
         id="path344"
         style="fill:#235792;fill-opacity:1;fill-rule:nonzero;stroke:none"
         d="m 3825.31,2642.43 c 11.71,-59.8 27.11,-139.7 42.5,-220.9 0,0 -92.74,-73.84 -263.24,-73.04 -132.21,0.7 -257.75,71.94 -270.65,75.14 10.3,72.9 22.7,153.1 31.9,211.5 0,0 87.65,0.31 238.75,1.7 151.2,1.41 219.35,5.3 219.35,5.3 l 1.39,0.3" /><path
         id="path346"
         style="fill:#4390d4;fill-opacity:1;fill-rule:nonzero;stroke:none"
         d="m 3867.81,2421.53 c 8.91,-46.6 17.71,-93.6 25.91,-137.5 -58.3,-24.2 -135.51,-42.6 -234.2,-42.3 -156.9,0.6 -267.7,14.6 -344.1,32.2 2.79,34.2 10,89.5 18.5,149.7 12.9,-3.2 127.8,-30.7 260,-31.4 170.49,-0.8 273.89,29.3 273.89,29.3" /><path
         id="path348"
         style="fill:#4390d4;fill-opacity:1;fill-rule:nonzero;stroke:none"
         d="m 3825.31,2642.43 -1.39,-0.3 c 0,0 -62.2,-27.6 -213.4,-29 -151.11,-1.4 -244.7,22 -244.7,22 -9.2,-58.4 -21.6,-138.6 -31.9,-211.5 -8.5,-60.2 -15.71,-115.5 -18.5,-149.7 -101.81,23.3 -142.4,52.9 -149.5,64.7 -12.4,20.7 72,449.9 159.39,525.8 79.81,69.4 162.71,56.6 162.71,56.6 h 0.5 l -0.5,-9 c 0,0 25.7,-23.8 87,-26.8 67.5,-3.3 90.9,49.2 90.9,49.2 0,0 133.8,10.2 217.29,-58.9 90.4,-74.9 165.71,-466.7 157.4,-484.7 -5.19,-11.1 -50.09,-66.8 -146.89,-106.8 -8.2,43.9 -17,90.9 -25.91,137.5 -15.39,81.2 -30.79,161.1 -42.5,220.9" /><path
         id="path350"
         style="fill:#153148;fill-opacity:1;fill-rule:nonzero;stroke:none"
         d="m 3691.42,3610.83 -1.21,-1.3 c -168.3,89.4 -291.89,5.9 -299.79,0.3 26.89,37.1 62.29,69.5 110.29,80.7 87,20.4 138.91,-32.2 190.71,-79.7" /><path
         id="path352"
         style="fill:#1a4568;fill-opacity:1;fill-rule:nonzero;stroke:none"
         d="m 3177.62,3501.03 c 31.1,13.5 49.69,-5.2 8.3,-32.1 -15.8,-10.2 -35.71,-11.6 -54.41,-7.3 12.61,17.9 33.7,34 46.11,39.4" /><path
         id="path354"
         style="fill:#1a4568;fill-opacity:1;fill-rule:nonzero;stroke:none"
         d="m 3855.92,3584.93 c 43.49,-3.1 74.6,-99.4 18.09,-293 -19.49,11.8 -45.8,11.2 -71.09,-10.5 0,0 -43.3,64.3 -22.61,269.2 0,0 32.21,27.8 62.4,33.4 4.51,0.9 8.91,1.2 13.21,0.9" /><path
         id="path356"
         style="fill:#1a4568;fill-opacity:1;fill-rule:nonzero;stroke:none"
         d="m 3390.21,3609.63 c -10.19,-14.1 -19.19,-28.9 -27.19,-43.4 -18.8,-34.3 -40.21,-96.4 -82.1,-134.4 -22.71,-20.6 -51.3,-34.1 -88.8,-32.3 -79.41,3.9 -79.7,35 -60.61,62.1 18.7,-4.3 38.61,-2.9 54.41,7.3 41.39,26.9 22.8,45.6 -8.3,32.1 -12.41,-5.4 -33.5,-21.5 -46.11,-39.4 -30.49,7.1 -57.59,29.5 -57.59,53.9 0.09,34.2 30.2,20.7 76.79,43.5 46.6,22.8 60.21,35.5 144.9,135.7 102.6,121.1 376.01,110.5 479.51,51.7 99.4,-56.3 67.4,-161.39 67.4,-161.39 l 0.19,-1.01 c -30.19,-5.6 -62.4,-33.4 -62.4,-33.4 -33.29,10.5 -61.09,34.6 -88.89,60.2 -51.8,47.5 -103.71,100.1 -190.71,79.7 -48,-11.2 -83.4,-43.6 -110.29,-80.7 l -0.21,-0.2" /><g
         id="g358"><g
           clip-path="url(#clipPath364)"
           id="g360"><path
             id="path366"
             style="fill:#f5796c;fill-opacity:1;fill-rule:nonzero;stroke:none"
             d="m 3490.11,2951.9 h 169.77 v 45.5313 h -169.77 z" /></g></g><path
         id="path368"
         style="fill:#193351;fill-opacity:1;fill-rule:nonzero;stroke:none"
         d="m 3779.63,3551.43 c 7.25,10.12 16.98,17.71 27.54,23.88 10.64,5.85 22.79,10.41 35.39,9.58 l 0.84,-0.96 -0.52,-0.76 c -10.84,-5.44 -20.69,-10.76 -30.78,-16.55 -10.09,-5.69 -20.04,-11.68 -31.09,-16.79 l -1.46,0.47 0.08,1.13" /><path
         id="path370"
         style="fill:#3472ae;fill-opacity:1;fill-rule:nonzero;stroke:none"
         d="m 3383.93,2718.66 c -1.73,-18.31 -4.11,-36.51 -6.14,-54.75 l -7.01,-54.6 c -4.52,-36.43 -9.85,-72.71 -15.19,-109.01 -5.47,-36.27 -11.38,-72.47 -17.21,-108.71 l -8.8,-54.27 c -3.17,-18.05 -5.84,-36.13 -8.56,-54.19 v -0.05 c -0.4,-2.61 -2.83,-4.41 -5.44,-4.01 -2.41,0.36 -4.13,2.46 -4.07,4.84 0.93,37.03 5.16,73.62 9.29,110.13 4.02,36.53 9.72,72.81 15.01,109.17 5.62,36.3 11.23,72.6 17.66,108.77 6.2,36.21 13.25,72.29 21.04,108.22 0.56,2.58 3.11,4.22 5.67,3.66 2.4,-0.52 3.98,-2.74 3.75,-5.12 v -0.08" /><path
         id="path372"
         style="fill:#3472ae;fill-opacity:1;fill-rule:nonzero;stroke:none"
         d="m 3810.6,2743.85 c 5.01,-18.53 9.83,-37.1 14.01,-55.79 4.29,-18.67 8.77,-37.3 12.27,-56.13 7.35,-37.58 15.26,-75.05 21.91,-112.76 6.81,-37.68 14.12,-75.26 20.22,-113.08 6.48,-37.75 12.58,-75.56 17.96,-113.51 0.37,-2.61 -1.44,-5.03 -4.06,-5.39 -2.45,-0.36 -4.74,1.26 -5.31,3.61 -8.99,37.27 -17.24,74.66 -25.12,112.13 -8.26,37.4 -15.3,75.03 -22.86,112.56 -7.71,37.5 -14.16,75.24 -21.18,112.88 -6.93,37.65 -12.65,75.53 -17.2,113.65 -0.32,2.62 1.54,5 4.16,5.32 2.39,0.29 4.58,-1.24 5.2,-3.49" /><path
         id="path374"
         style="fill:#ca565c;fill-opacity:1;fill-rule:nonzero;stroke:none"
         d="m 3819.18,3218.3 c -2.16,6.55 -2.12,13.68 -0.43,20.52 1.67,6.87 5.08,13.57 10.8,19.18 5.54,5.41 14.94,9.85 23.99,7.64 8.89,-1.94 14.62,-7.94 17.69,-14 1.24,-2.45 0.25,-5.44 -2.2,-6.68 -1.35,-0.69 -2.9,-0.69 -4.2,-0.14 l -0.48,0.21 c -5.27,2.28 -9.77,3.56 -12.83,3.11 -2.94,-0.37 -5.32,-1.83 -8.18,-4.59 -2.85,-2.67 -5.49,-6.56 -7.91,-10.82 -2.38,-4.33 -4.46,-9.07 -6.71,-14.43 l -0.16,-0.37 c -1.07,-2.55 -4,-3.75 -6.56,-2.68 -1.39,0.58 -2.37,1.73 -2.82,3.05" /><path
         id="path376"
         style="fill:#15141a;fill-opacity:1;fill-rule:nonzero;stroke:none"
         d="m 3411.6,3299.06 c 0,-14.84 -12.03,-26.87 -26.87,-26.87 -14.84,0 -26.87,12.03 -26.87,26.87 0,14.85 12.03,26.88 26.87,26.88 14.84,0 26.87,-12.03 26.87,-26.88" /><path
         id="path378"
         style="fill:#15141a;fill-opacity:1;fill-rule:nonzero;stroke:none"
         d="m 3664.3,3299.06 c 0,-14.84 -12.03,-26.87 -26.88,-26.87 -14.84,0 -26.87,12.03 -26.87,26.87 0,14.85 12.03,26.88 26.87,26.88 14.85,0 26.88,-12.03 26.88,-26.88" /><path
         id="path380"
         style="fill:#f36258;fill-opacity:1;fill-rule:nonzero;stroke:none"
         d="m 3505.74,3239.38 c -24.02,0 -43.49,15.44 -43.49,34.5 0,19.06 19.47,34.5 43.49,34.5 24.03,0 43.5,-15.44 43.5,-34.5 0,-19.06 -19.47,-34.5 -43.5,-34.5" /><path
         id="path382"
         style="fill:#f3635a;fill-opacity:1;fill-rule:nonzero;stroke:none"
         d="m 3357.86,3104.61 c -39.04,0 -70.69,31.65 -70.69,70.69 0,39.04 31.65,70.69 70.69,70.69 39.03,0 70.68,-31.65 70.68,-70.69 0,-39.04 -31.65,-70.69 -70.68,-70.69" /><path
         id="path384"
         style="fill:#f3635a;fill-opacity:1;fill-rule:nonzero;stroke:none"
         d="m 3718.48,3124.87 c -39.05,0 -70.7,31.65 -70.7,70.69 0,39.04 31.65,70.69 70.7,70.69 39.03,0 70.68,-31.65 70.68,-70.69 0,-39.04 -31.65,-70.69 -70.68,-70.69" /><path
         id="path386"
         style="fill:#153148;fill-opacity:1;fill-rule:nonzero;stroke:none"
         d="m 3387.82,3390.4 c 17,11.17 35.49,12.47 35.28,29.99 -0.21,16.52 -22.47,22.48 -42.42,14.74 -24,-9.31 -32.95,-28.18 -34.17,-40.04 -1.16,-11.22 4.85,-14.76 10.19,-16.18 9,-2.4 25.51,8.53 31.12,11.49" /><path
         id="path388"
         style="fill:#153148;fill-opacity:1;fill-rule:nonzero;stroke:none"
         d="m 3647.35,3388.96 c -18.62,8.19 -37.06,6.4 -39.76,23.71 -2.55,16.32 18.41,25.89 39.37,21.58 25.22,-5.19 37.17,-22.31 40.35,-33.8 3.01,-10.87 -2.32,-15.36 -7.36,-17.65 -8.48,-3.87 -26.57,4.17 -32.6,6.16" /><path
         id="path390"
         style="fill:#1a4568;fill-opacity:1;fill-rule:nonzero;stroke:none"
         d="m 3867.79,3618.4 c -4.75,0.54 1.61,67.66 16.8,62.14 15.19,-5.53 -4.6,-63.52 -16.8,-62.14" /><path
         id="path392"
         style="fill:#1a4568;fill-opacity:1;fill-rule:nonzero;stroke:none"
         d="m 3883.21,3594.93 c 4.77,-13.76 55.55,4.14 55.46,33.12 -0.06,20.92 -60.5,-18.57 -55.46,-33.12" /><path
         id="path394"
         style="fill:#193351;fill-opacity:1;fill-rule:nonzero;stroke:none"
         d="m 3082.74,3535.14 c -4.81,-3.52 -6.92,-9.44 -7.29,-15.39 -0.55,-6.06 0.72,-11.91 2.84,-17.48 4.81,-10.99 14.06,-19.59 24.16,-26.05 20.35,-12.65 46.36,-18.14 68.89,-10.72 10.95,3.71 21.1,11.2 29.2,19.54 3.67,4.11 7.01,9.83 5.46,13.04 -1.19,3.16 -7.29,4.49 -12.72,3.67 -11.38,-1.36 -21.86,-7.49 -31.36,-14.87 -9.53,-7.35 -18.27,-15.9 -25.39,-25.4 -6.89,-9.32 -12.77,-20.75 -10.56,-30.78 2.1,-9.95 12.68,-16.53 23.76,-19.94 22.55,-6.68 48.01,-8.38 71.11,-4.39 23.4,4.31 44.79,16.67 61.69,33.71 16.94,17.12 30.19,37.8 41.75,59.33 11.78,21.5 21.37,44.17 33.07,66.46 11.89,22 25.46,43.16 41.57,62.52 16.19,19.21 35.09,36.61 57.26,49.14 10.95,6.44 22.85,11.24 35.03,14.85 3.08,0.79 6.12,1.73 9.22,2.41 l 9.4,1.46 c 6.29,0.71 12.45,2.54 18.84,2.3 25.42,2.09 51.13,-4.21 73.7,-15.24 22.73,-11.12 42.54,-26.81 61.1,-43.29 18.51,-16.59 35.9,-34.2 54.63,-50.23 18.65,-15.95 39.03,-30.56 62.5,-38.34 l 0.56,-1.1 -1.08,-0.57 c -24.03,7.24 -45.14,21.54 -64.38,37.12 -19.31,15.67 -37.23,32.85 -56.02,48.79 -18.67,16.01 -38.3,31.05 -60.29,41.37 -21.86,10.24 -46.12,15.82 -70.23,13.45 -6.04,0.16 -11.93,-1.72 -17.9,-2.47 l -8.93,-1.51 c -2.93,-0.69 -5.8,-1.63 -8.69,-2.42 -11.48,-3.54 -22.72,-8.07 -33.07,-14.26 -20.96,-11.98 -39,-28.71 -54.56,-47.37 -15.47,-18.79 -28.67,-39.56 -40.18,-61.16 -11.21,-21.6 -20.82,-44.67 -32.75,-66.65 -11.93,-21.94 -25.71,-43.37 -43.75,-61.44 -17.96,-18 -41.36,-31.47 -66.75,-36 l -9.51,-1.64 c -3.18,-0.46 -6.4,-0.25 -9.59,-0.4 -6.42,-0.17 -12.84,-0.38 -19.07,0.31 -12.54,1.02 -25.16,2.69 -37.53,6.76 -6.16,2 -12.3,4.75 -17.81,8.98 -5.47,4.11 -10.25,10.37 -11.66,17.67 -1.51,7.28 0.06,14.46 2.59,20.61 2.54,6.23 6.06,11.77 9.98,16.88 7.88,10.19 17.16,18.96 27.31,26.58 10.04,7.54 21.75,14.42 35.25,15.85 3.38,0.29 6.88,0.26 10.48,-0.65 3.5,-0.87 7.59,-3.28 9.32,-7.52 1.83,-4.38 0.34,-8.47 -1.05,-11.66 -1.6,-3.22 -3.72,-5.84 -5.88,-8.37 -9.2,-9.17 -19.66,-16.76 -32.22,-20.82 -25.1,-7.44 -51.98,-0.7 -72.95,13.03 -10.39,7.04 -19.91,16.29 -24.79,28.26 -2.16,6.01 -3.33,12.58 -2.58,18.89 0.51,6.26 3.11,13.06 8.61,16.84 l 0.05,0.03 1.46,-0.27 -0.25,-1.45" /><path
         id="path396"
         style="fill:#f14a75;fill-opacity:1;fill-rule:nonzero;stroke:none"
         d="m 3523.82,3116.03 c 0,0 18,27.9 55.59,43.2 37.9,15.5 66.2,-1.1 68.3,-2.4 -10,-17.6 -27.1,-33.2 -53.79,-40.7 -28.1,-7.8 -51.5,-6.4 -70.1,-0.1" /><path
         id="path398"
         style="fill:#15141a;fill-opacity:1;fill-rule:nonzero;stroke:none"
         d="m 3644.72,3237.73 c 15.4,-5.8 22.19,-47.1 2.99,-80.9 -2.1,1.3 -30.4,17.9 -68.3,2.4 -37.59,-15.3 -55.59,-43.2 -55.59,-43.2 -39.5,13.2 -56.8,48.3 -50,61.9 15.5,31.1 43.3,6 88.4,16.4 34,7.8 48.3,56.1 82.5,43.4" /><path
         id="path400"
         style="fill:#6fd0df;fill-opacity:1;fill-rule:nonzero;stroke:none"
         d="m 3057.83,3616.22 c -2.15,-8.36 -387.94,80.23 -366.73,388.59 23.05,334.85 357.6,342.91 491.49,229.48 119.09,-100.93 151.49,-312.75 -5.92,-451.75 -72.19,-63.74 -177.15,-66.8 -173.15,-84.96 5.53,-25.1 56.99,-70.97 54.31,-81.36" /><g
         transform="scale(10)"
         id="g402"><text
           id="text406"
           style="font-variant:normal;font-weight:bold;font-size:30.48530006px;font-family:Amatic;-inkscape-font-specification:Amatic-Bold;writing-mode:lr-tb;fill:#ffffff;fill-opacity:1;fill-rule:nonzero;stroke:none"
           transform="matrix(1,0,0,-1,279.514,387.692)"><tspan
             id="tspan404"
             y="0"
             x="0 8.3224869 18.016811 24.976957">Hola</tspan></text>
</g></g></g></svg>